<svg width="31" height="27" viewBox="0 0 31 27" fill="none" xmlns="http://www.w3.org/2000/svg">
<path fill-rule="evenodd" clip-rule="evenodd" d="M13.71 0.0143827C10.5882 0.401931 7.73144 1.68056 5.39511 3.73587C2.47108 6.30826 0.644333 9.73638 0.132732 13.6111C-0.196671 16.1063 0.0890016 18.6937 0.967856 21.1755C1.25476 21.9857 1.98714 23.4554 2.50048 24.2513C2.91762 24.8979 3.55352 25.7355 4.09502 26.3516L4.34279 26.6334L4.38277 26.1524C4.46105 25.2108 4.6779 24.4528 5.06044 23.7836C5.27803 23.403 5.99926 22.6854 6.40297 22.4479C6.70124 22.2723 6.74077 22.228 6.75561 22.0523C6.77325 21.8427 6.76793 21.834 6.12066 21.0048C5.73862 20.5154 5.35278 19.733 5.1946 19.1268C5.04616 18.5579 4.98961 17.362 5.08122 16.7273C5.16873 16.1204 5.37937 15.2759 5.56224 14.7986C5.83151 14.0958 6.41439 12.9381 6.79127 12.3576L7.15886 11.7915V10.5793C7.15886 9.91251 7.17527 9.36698 7.19532 9.36698C7.21536 9.36698 8.72082 9.86835 10.5409 10.4811C12.3608 11.0939 14.0137 11.6312 14.2139 11.6752C14.6886 11.7795 15.771 11.7786 16.2016 11.6735C16.3864 11.6284 18.0052 11.094 19.7991 10.4859L23.0607 9.3803V10.5676V11.755L23.4194 12.254C24.3177 13.5038 24.964 14.8659 25.311 16.2409C25.4799 16.9101 25.4934 17.0303 25.4902 17.8464C25.4875 18.5634 25.4643 18.8137 25.3662 19.1837C25.192 19.8406 24.8081 20.5837 24.3226 21.204C23.942 21.6902 23.9009 21.7668 23.914 21.9651C23.9278 22.1747 23.9485 22.1971 24.3349 22.4204C25.6294 23.1684 26.3196 24.4 26.4519 26.1977C26.4732 26.4872 26.5029 26.7241 26.5179 26.7241C26.5329 26.7241 26.6903 26.5641 26.8675 26.3685C30.1682 22.7259 31.5804 17.9072 30.7816 13.0139C30.2848 9.97067 28.8461 7.05962 26.7363 4.82886C24.3899 2.34787 21.554 0.78504 18.2733 0.164963C17.547 0.0276994 17.3577 0.0158054 15.6977 0.00339933C14.7122 -0.00394189 13.8177 0.00100916 13.71 0.0143827ZM15.7767 3.67748C16.1627 3.72841 17.7324 4.23963 24.6282 6.56013C26.4748 7.18152 26.671 7.30012 26.352 7.60219C26.272 7.67788 24.4817 8.30621 21.3267 9.3659C16.3325 11.0433 16.1743 11.0927 15.5829 11.1588C14.863 11.2392 14.5675 11.1552 9.46379 9.42014C6.80141 8.515 4.54481 7.72813 4.44918 7.6715C4.23551 7.54505 4.1957 7.34866 4.35522 7.20804C4.48865 7.09035 4.66844 7.0269 10.238 5.13059C14.7679 3.58819 14.879 3.55905 15.7767 3.67748ZM8.78264 13.6602C8.78264 13.7367 8.8103 13.8165 8.84412 13.8377C8.87794 13.859 8.97872 13.9935 9.06809 14.1368C9.31955 14.5399 9.29827 14.8491 8.99261 15.2317C8.51393 15.8307 8.43386 15.9463 8.26522 16.2814C8.0086 16.7913 7.88564 17.2472 7.85087 17.8179C7.74365 19.5767 8.86036 21.0435 10.5456 21.3575C11.674 21.5677 12.8911 21.168 13.7629 20.301L14.0901 19.9756L14.1265 20.291C14.2035 20.9576 14.6711 21.9235 15.2435 22.5983L15.4366 22.8259L15.6512 22.5752C16.1966 21.9378 16.6732 21.0428 16.76 20.4926C16.8453 19.9527 16.8075 19.9625 17.2396 20.3691C18.3816 21.4437 19.9948 21.7142 21.3249 21.054C21.6357 20.8997 21.8558 20.7318 22.1716 20.408C22.8349 19.728 23.1167 19.0123 23.1167 18.0078C23.1167 17.0742 22.8039 16.2391 22.1645 15.4651C21.9866 15.2498 21.8131 15.0205 21.7789 14.9556C21.6434 14.6984 21.7466 14.3126 22.0576 13.9135C22.3487 13.54 22.2839 13.498 21.4774 13.5385C20.1851 13.6033 18.9237 13.9103 17.9374 14.4C17.1391 14.7963 16.6756 15.2405 16.3415 15.9294C15.9322 16.7733 15.8566 17.5461 16.091 18.4876C16.1288 18.6392 16.1246 18.643 15.9803 18.5872C15.7851 18.5118 15.0773 18.5124 14.9381 18.5882C14.8085 18.6587 14.807 18.6383 14.9144 18.2784C15.0215 17.9195 15.0202 17.1249 14.9117 16.6572C14.5221 14.9774 13.0015 13.984 10.2384 13.6043C9.91508 13.5599 9.45522 13.523 9.21658 13.5225C8.79356 13.5213 8.78264 13.5248 8.78264 13.6602ZM11.1713 15.1122C10.4943 15.8738 10.4706 17.0084 11.1164 17.7371C12.0958 18.8421 13.8779 17.8571 13.8779 16.2108C13.8779 15.8596 13.9333 15.8604 14.1113 16.2141C14.3688 16.7261 14.4544 17.4842 14.3213 18.074C14.0624 19.2219 13.0709 20.181 11.8749 20.4406C11.4742 20.5275 11.3531 20.5318 10.979 20.4728C9.11115 20.178 8.21958 18.2276 9.15398 16.4806C9.50763 15.8194 10.1518 15.2606 10.8579 15.0025C11.3438 14.8249 11.4069 14.847 11.1713 15.1122ZM20.1687 15.0242C21.0891 15.3763 21.76 16.1055 22.0846 17.1066C22.2214 17.5285 22.2207 18.2817 22.0832 18.7C21.8922 19.2807 21.4367 19.8693 20.9561 20.1566C20.6934 20.3137 19.9464 20.5215 19.6502 20.5201C19.3019 20.5184 18.6786 20.3578 18.3138 20.1757C17.1489 19.5943 16.4044 18.2058 16.615 17.0078C16.6843 16.614 16.8647 16.1556 17.0353 15.9399C17.1209 15.8318 17.1237 15.8374 17.0927 16.0538C17.0504 16.3491 17.1975 16.9885 17.3809 17.3065C17.9797 18.3451 19.3062 18.5107 19.9646 17.6292C20.4804 16.9386 20.4128 15.7892 19.8156 15.0979C19.5954 14.843 19.6599 14.8295 20.1687 15.0242Z" fill="#D20000"/>
</svg>
