<svg width="147" height="126" viewBox="0 0 147 126" fill="none" xmlns="http://www.w3.org/2000/svg">
<path fill-rule="evenodd" clip-rule="evenodd" d="M65.2402 0.0678121C50.5217 1.89504 37.0525 7.92355 26.037 17.614C12.2507 29.7424 3.6379 45.9055 1.22578 64.1742C-0.327296 75.9388 1.0196 88.1378 5.16326 99.8393C6.51597 103.659 9.96902 110.589 12.3893 114.341C14.3561 117.39 17.3543 121.339 19.9074 124.243L21.0755 125.572L21.264 123.304C21.6331 118.865 22.6555 115.291 24.4591 112.136C25.485 110.341 28.8855 106.958 30.7889 105.838C32.1952 105.01 32.3816 104.801 32.4516 103.973C32.5347 102.985 32.5097 102.944 29.4579 99.0343C27.6566 96.7268 25.8375 93.0377 25.0917 90.1799C24.3918 87.4976 24.1252 81.8592 24.5571 78.8667C24.9697 76.0051 25.9629 72.0235 26.8251 69.7729C28.0946 66.4592 30.8428 61.0011 32.6197 58.2643L34.3529 55.5949V49.8795C34.3529 46.7359 34.4302 44.1638 34.5247 44.1638C34.6192 44.1638 41.7173 46.5277 50.2984 49.4166C58.8793 52.3058 66.6724 54.8393 67.6162 55.0467C69.8546 55.5385 74.9576 55.5342 76.988 55.0386C77.8591 54.8259 85.4917 52.3064 93.9496 49.4392L109.327 44.2266V49.8247V55.4231L111.018 57.7757C115.254 63.6685 118.301 70.0903 119.937 76.5731C120.734 79.7285 120.797 80.2952 120.782 84.1428C120.77 87.5236 120.66 88.7034 120.198 90.4482C119.376 93.5451 117.566 97.049 115.277 99.9734C113.483 102.266 113.289 102.627 113.351 103.562C113.416 104.55 113.513 104.656 115.335 105.708C121.439 109.235 124.693 115.042 125.316 123.518C125.417 124.883 125.557 126 125.628 126C125.698 126 126.44 125.245 127.276 124.323C142.838 107.149 149.497 84.4296 145.73 61.3583C143.388 47.0101 136.605 33.285 126.657 22.7673C115.594 11.0698 102.224 3.70134 86.7558 0.777775C83.3315 0.130598 82.4387 0.07452 74.612 0.0160273C69.9657 -0.0185854 65.7484 0.00475805 65.2402 0.0678121ZM74.9848 17.3387C76.8045 17.5789 84.2056 19.9892 116.718 30.93C125.424 33.8597 126.349 34.4189 124.845 35.8431C124.468 36.2 116.027 39.1624 101.152 44.1587C77.6052 52.0673 76.8591 52.3002 74.0708 52.6117C70.6764 52.9909 69.2833 52.5951 45.2202 44.4144C32.6675 40.1469 22.028 36.4369 21.5771 36.1699C20.5697 35.5737 20.382 34.6478 21.1341 33.9847C21.7632 33.4299 22.6109 33.1307 48.8704 24.1899C70.2284 16.9177 70.7521 16.7804 74.9848 17.3387ZM42.0087 64.4058C42.0087 64.7661 42.1391 65.1426 42.2986 65.2427C42.458 65.343 42.9332 65.9773 43.3545 66.6527C44.5401 68.5531 44.4398 70.0112 42.9987 71.8148C40.7418 74.6393 40.3643 75.1843 39.5691 76.7641C38.3592 79.1682 37.7795 81.318 37.6156 84.0086C37.11 92.3012 42.3751 99.2168 50.3208 100.697C55.6408 101.688 61.3793 99.8038 65.49 95.7158L67.0325 94.1818L67.2041 95.6688C67.5671 98.8119 69.7717 103.366 72.4708 106.547L73.3813 107.62L74.3926 106.438C76.9645 103.433 79.2113 99.2133 79.6208 96.6195C80.0228 94.0737 79.8446 94.1199 81.8819 96.037C87.2663 101.104 94.872 102.379 101.143 99.2661C102.609 98.5387 103.646 97.7472 105.135 96.2205C108.263 93.0141 109.591 89.64 109.591 84.9037C109.591 80.5023 108.117 76.5648 105.102 72.9154C104.263 71.9001 103.445 70.8193 103.284 70.5135C102.645 69.3004 103.132 67.4818 104.598 65.6001C105.971 63.8388 105.665 63.6411 101.863 63.8319C95.7696 64.1375 89.8223 65.5848 85.1718 67.8936C81.408 69.7622 79.2227 71.8567 77.6474 75.1046C75.7179 79.0835 75.3612 82.7269 76.4666 87.1662C76.6448 87.881 76.625 87.8987 75.9447 87.6357C75.0241 87.2802 71.6872 87.2832 71.0307 87.6403C70.4198 87.9727 70.4124 87.8767 70.919 86.1796C71.424 84.4876 71.4177 80.7414 70.9063 78.5358C69.0695 70.616 61.8999 65.9322 48.8726 64.1423C47.348 63.9328 45.1798 63.7589 44.0547 63.7562C42.0602 63.7508 42.0087 63.7672 42.0087 64.4058ZM53.2707 71.2516C50.0787 74.8425 49.9671 80.1919 53.012 83.6276C57.6295 88.8372 66.0322 84.1933 66.0322 76.4312C66.0322 74.7754 66.2933 74.7791 67.1323 76.447C68.3466 78.861 68.7503 82.435 68.1228 85.2161C66.9018 90.6283 62.227 95.1502 56.5881 96.374C54.6989 96.7837 54.1279 96.8043 52.3641 96.5258C43.5576 95.136 39.354 85.9403 43.7595 77.7032C45.4269 74.586 48.4642 71.9511 51.7931 70.7343C54.0841 69.8971 54.3819 70.0012 53.2707 71.2516ZM95.6922 70.8365C100.032 72.4966 103.195 75.9348 104.725 80.6547C105.37 82.644 105.367 86.1954 104.718 88.1675C103.818 90.9054 101.671 93.6806 99.4048 95.0351C98.1659 95.7756 94.6442 96.7558 93.2474 96.7491C91.6053 96.741 88.6665 95.9836 86.9466 95.1252C81.4545 92.3838 77.9439 85.8375 78.937 80.1889C79.2636 78.3324 80.1142 76.1712 80.9186 75.1543C81.3222 74.6442 81.3357 74.6707 81.1894 75.6909C80.9899 77.0832 81.6834 80.098 82.548 81.5976C85.3714 86.4941 91.6254 87.2751 94.73 83.1189C97.1619 79.8629 96.843 74.4435 94.0275 71.1843C92.9889 69.9822 93.2931 69.9186 95.6922 70.8365Z" fill="#DA4053"/>
</svg>
