<svg width="40" height="40" viewBox="0 0 40 40" fill="none" xmlns="http://www.w3.org/2000/svg">
<g clip-path="url(#clip0_8_515)">
<path d="M12.1649 32.8847H10.8709C10.55 32.8847 10.2889 32.6236 10.2889 32.3027C10.2889 31.9818 10.5499 31.7207 10.8709 31.7207H13.1507C13.4758 31.7207 13.7394 31.4572 13.7394 31.132C13.7394 30.8068 13.4758 30.5433 13.1507 30.5433H12.1066V29.9305C12.1066 29.6053 11.843 29.3418 11.5179 29.3418C11.1927 29.3418 10.9291 29.6053 10.9291 29.9305V30.5433H10.8709C9.90079 30.5433 9.11145 31.3326 9.11145 32.3027C9.11145 33.2728 9.90071 34.0621 10.8709 34.0621H12.1648C12.4857 34.0621 12.7468 34.3232 12.7468 34.6441C12.7468 34.9651 12.4858 35.2261 12.1648 35.2261H9.88509C9.55997 35.2261 9.29638 35.4896 9.29638 35.8148C9.29638 36.14 9.55997 36.4035 9.88509 36.4035H10.9291V37.0163C10.9291 37.3415 11.1927 37.6051 11.5179 37.6051C11.843 37.6051 12.1066 37.3415 12.1066 37.0163V36.4035H12.1648C13.1349 36.4035 13.9243 35.6142 13.9243 34.6441C13.9243 33.674 13.135 32.8847 12.1649 32.8847Z" fill="#434343"/>
<path d="M35.7143 17.3142C35.7143 16.511 35.0608 15.8574 34.2575 15.8574H32.3915V6.24188H33.6834C33.9812 6.24188 34.2505 6.07712 34.3859 5.81188C34.5214 5.54665 34.4972 5.23197 34.3226 4.99068L30.8889 0.242395C30.7417 0.0389378 30.5039 -0.0830424 30.2528 -0.0839844C30.0049 -0.0834349 29.7631 0.035327 29.6143 0.23745L26.1211 4.98542C25.9437 5.22639 25.9174 5.54202 26.0524 5.80898C26.1874 6.07602 26.4571 6.24195 26.7564 6.24195H28.111V15.8575H25.0565C24.2533 15.8575 23.5997 16.511 23.5997 17.3143V18.666C23.5997 18.9914 23.7083 19.2912 23.8894 19.534C23.7083 19.7768 23.5997 20.0767 23.5997 20.4021V21.7537C23.5997 22.0791 23.7083 22.379 23.8894 22.6218C23.7083 22.8645 23.5997 23.1644 23.5997 23.4898V24.8415C23.5997 24.9372 23.6102 25.0304 23.628 25.1209H22.4718V12.3956H23.7638C24.0616 12.3956 24.3308 12.2308 24.4663 11.9656C24.6018 11.7004 24.5775 11.3857 24.4029 11.1444L20.9694 6.39627C20.8223 6.19274 20.5846 6.07068 20.3334 6.06966C20.3323 6.06966 20.3313 6.06966 20.3302 6.06966C20.0803 6.06966 19.8429 6.1896 19.6947 6.39109L16.2015 11.1391C16.0241 11.38 15.9978 11.6957 16.1328 11.9626C16.2678 12.2297 16.5376 12.3956 16.8368 12.3956H18.1913V25.1206H15.5653C14.762 25.1206 14.1085 25.774 14.1085 26.5772V27.3719C13.6169 27.1624 13.0957 27.0091 12.552 26.9236V18.9734H13.844C14.1418 18.9734 14.4109 18.8087 14.5464 18.5435C14.682 18.2783 14.6577 17.9636 14.4832 17.7222L11.0498 12.9743C10.9027 12.7708 10.665 12.6487 10.4139 12.6476C10.1623 12.6464 9.92395 12.7666 9.77497 12.9689L6.28166 17.717C6.10434 17.958 6.07812 18.2736 6.21313 18.5406C6.34822 18.8075 6.61793 18.9734 6.91715 18.9734H8.27165V21.031C8.27165 21.3562 8.53523 21.6197 8.86036 21.6197C9.18548 21.6197 9.44906 21.3562 9.44906 21.031V18.585C9.44906 18.1499 9.09513 17.796 8.6602 17.796H7.68569L10.4081 14.0957L13.084 17.796H12.1639C11.7289 17.796 11.375 18.1499 11.375 18.585V26.8461C10.7041 26.8604 10.0576 26.9744 9.44946 27.1746V23.7783C9.44946 23.4531 9.18587 23.1896 8.86075 23.1896C8.53562 23.1896 8.27204 23.4531 8.27204 23.7783V27.6945C6.25356 28.8326 4.88666 30.996 4.88666 33.4738C4.88666 37.1303 7.86144 40.105 11.5179 40.105C13.083 40.105 14.5222 39.5588 15.6577 38.6486H34.2575C35.0608 38.6486 35.7143 37.9951 35.7143 37.1918V35.8401C35.7143 35.5147 35.6057 35.2149 35.4247 34.9721C35.6057 34.7294 35.7143 34.4296 35.7143 34.1042V32.7525C35.7143 32.427 35.6057 32.1272 35.4247 31.8844C35.6057 31.6416 35.7143 31.3418 35.7143 31.0163V29.6647C35.7143 29.3393 35.6057 29.0395 35.4247 28.7967C35.6057 28.5539 35.7143 28.254 35.7143 27.9286V26.5769C35.7143 26.2515 35.6057 25.9517 35.4247 25.7089C35.6057 25.4662 35.7143 25.1664 35.7143 24.841V23.4893C35.7143 23.1638 35.6057 22.864 35.4247 22.6212C35.6057 22.3784 35.7143 22.0786 35.7143 21.7531V20.4016C35.7143 20.0761 35.6057 19.7763 35.4247 19.5335C35.6057 19.2907 35.7143 18.9909 35.7143 18.6654V17.3142ZM27.5247 5.06454L30.2472 1.36416L32.923 5.06454H32.0029C31.568 5.06454 31.2141 5.41847 31.2141 5.85341V15.8575H29.2885V5.85341C29.2885 5.41847 28.9346 5.06454 28.4996 5.06454H27.5247ZM17.6052 11.2182L20.3276 7.5178L23.0034 11.2182H22.0834C21.6483 11.2182 21.2944 11.5721 21.2944 12.0071V25.1206H19.3689V12.0071C19.3689 11.5721 19.0149 11.2182 18.58 11.2182H17.6052ZM11.5179 38.9277C8.51066 38.9277 6.06407 36.4811 6.06407 33.4738C6.06407 30.4666 8.51066 28.02 11.5179 28.02C14.5252 28.02 16.9718 30.4666 16.9718 33.4738C16.9718 36.4811 14.5252 38.9277 11.5179 38.9277ZM25.0459 37.192C25.0459 37.346 24.9205 37.4713 24.7665 37.4713H16.8046C17.238 36.8997 17.5797 36.2555 17.8108 35.5611H24.7665C24.9205 35.5611 25.0459 35.6864 25.0459 35.8404V37.192ZM25.0459 31.0166C25.0459 31.1706 24.9205 31.2959 24.7665 31.2959H22.4983C22.1731 31.2959 21.9096 31.5594 21.9096 31.8846C21.9096 32.2099 22.1731 32.4734 22.4983 32.4734H24.7665C24.9205 32.4734 25.0459 32.5987 25.0459 32.7527V34.1044C25.0459 34.2584 24.9205 34.3838 24.7665 34.3838H18.0852C18.1263 34.0861 18.1492 33.7827 18.1492 33.4739C18.1492 33.1337 18.1221 32.8 18.0725 32.4734H19.751C20.0761 32.4734 20.3397 32.2099 20.3397 31.8847C20.3397 31.5595 20.0761 31.296 19.751 31.296H17.7802C17.5372 30.5995 17.1821 29.9551 16.7349 29.3858H24.7665C24.9205 29.3858 25.0459 29.5111 25.0459 29.6651V31.0166ZM25.0459 27.9289C25.0459 28.0829 24.9205 28.2083 24.7665 28.2083H15.5655C15.5562 28.2083 15.5475 28.2064 15.5385 28.2055C15.4629 28.1477 15.3861 28.0916 15.308 28.0369C15.294 28.0037 15.2861 27.9672 15.2861 27.9289V26.5772C15.2861 26.4232 15.4114 26.298 15.5655 26.298H24.7665C24.9205 26.298 25.0459 26.4232 25.0459 26.5772V27.9289ZM34.5369 37.192C34.5369 37.346 34.4115 37.4713 34.2575 37.4713H26.1958C26.2134 37.3808 26.2233 37.2876 26.2233 37.192V35.8403C26.2233 35.7446 26.2129 35.6515 26.1951 35.561H34.2575C34.4115 35.561 34.5369 35.6863 34.5369 35.8403V37.192ZM34.5369 34.1043C34.5369 34.2583 34.4115 34.3837 34.2575 34.3837H26.195C26.2129 34.2932 26.2233 34.2001 26.2233 34.1043V32.7526C26.2233 32.657 26.2129 32.5638 26.195 32.4733H34.2575C34.4115 32.4733 34.5369 32.5986 34.5369 32.7526V34.1043ZM34.5369 31.0166C34.5369 31.1706 34.4115 31.2959 34.2575 31.2959H26.195C26.2129 31.2054 26.2233 31.1123 26.2233 31.0166V29.665C26.2233 29.5693 26.2129 29.4761 26.195 29.3856H34.2575C34.4115 29.3856 34.5369 29.511 34.5369 29.665V31.0166ZM34.5369 24.8413C34.5369 24.9951 34.4118 25.1202 34.2581 25.1206C34.2579 25.1206 34.2578 25.1206 34.2576 25.1206H32.781C32.4558 25.1206 32.1923 25.3841 32.1923 25.7093C32.1923 26.0345 32.4558 26.298 32.781 26.298H34.256C34.2565 26.298 34.257 26.298 34.2575 26.298H34.258C34.4118 26.2984 34.5368 26.4235 34.5368 26.5773V27.929C34.5368 28.083 34.4114 28.2084 34.2574 28.2084H26.195C26.2129 28.1179 26.2233 28.0248 26.2233 27.929V26.5773C26.2233 26.4817 26.2134 26.3885 26.1958 26.298H30.0337C30.3589 26.298 30.6224 26.0345 30.6224 25.7093C30.6224 25.3841 30.3589 25.1206 30.0337 25.1206H25.0566C25.0564 25.1206 25.0563 25.1206 25.0561 25.1206C24.9023 25.1202 24.7773 24.9951 24.7773 24.8413V23.4896C24.7773 23.3356 24.9026 23.2102 25.0566 23.2102H34.2575C34.4115 23.2102 34.5369 23.3356 34.5369 23.4896V24.8413ZM34.5369 21.7535C34.5369 21.9075 34.4115 22.0329 34.2575 22.0329H25.0566C24.9026 22.0329 24.7772 21.9075 24.7772 21.7535V20.4019C24.7772 20.2479 24.9026 20.1226 25.0566 20.1226H34.2575C34.4115 20.1226 34.5369 20.2479 34.5369 20.4019V21.7535ZM34.5369 18.6659C34.5369 18.8199 34.4115 18.9452 34.2575 18.9452H25.0566C24.9026 18.9452 24.7772 18.8199 24.7772 18.6659V17.3142C24.7772 17.1602 24.9026 17.0348 25.0566 17.0348H34.2575C34.4115 17.0348 34.5369 17.1602 34.5369 17.3142V18.6659Z" fill="#434343"/>
</g>
<defs>
<clipPath id="clip0_8_515">
<rect width="40" height="40" fill="white"/>
</clipPath>
</defs>
</svg>
