<svg width="32" height="33" viewBox="0 0 32 33" fill="none" xmlns="http://www.w3.org/2000/svg">
<path d="M28.7783 21.394L26.3314 19L21.2695 23.952C20.3659 24.836 19.2318 25.4123 18 25.628L21.2252 28.7832C21.5205 29.0723 21.9997 29.0723 22.2951 28.7832L28.7783 22.4408C29.0739 22.1517 29.0739 21.6829 28.7783 21.394Z" fill="#D20000"/>
<path d="M25.3545 17.4473C26.2149 16.5805 26.2151 15.1699 25.3556 14.3024C25.3546 14.3014 25.3537 14.3004 25.3527 14.2994C25.14 14.0853 24.8915 13.9203 24.621 13.8099C24.8556 13.2121 24.9051 12.2011 24.1281 11.4179C24.1261 11.4159 24.1241 11.4137 24.1219 11.4117C23.9103 11.1998 23.6634 11.0364 23.3947 10.9267C23.6292 10.3292 23.6789 9.31797 22.9023 8.53526C22.9017 8.53466 22.9013 8.53426 22.9009 8.53386C22.6881 8.31936 22.4394 8.15392 22.1685 8.04357C22.403 7.44572 22.4525 6.43448 21.6756 5.65137C21.6754 5.65137 21.6754 5.65117 21.6752 5.65117C21.675 5.65097 21.6748 5.65077 21.6746 5.65057C20.8138 4.78314 19.4133 4.78314 18.5525 5.65057L17.1053 7.10864L17.8453 7.8543C19.0784 9.09686 19.0784 11.1185 17.8455 12.3611C17.4304 12.7791 16.9206 13.0663 16.3649 13.2031C16.2319 13.7491 15.9544 14.2666 15.5317 14.6924C15.1173 15.11 14.6082 15.397 14.0531 15.534C13.9173 16.0932 13.6323 16.6063 13.2181 17.0237C12.8037 17.4413 12.2947 17.7283 11.7395 17.8653C11.6038 18.4245 11.3187 18.9376 10.9045 19.3552C10.3072 19.9569 9.513 20.2885 8.66827 20.2885C7.82353 20.2885 7.02928 19.9571 6.43201 19.355L5.69202 18.6093L3.22361 21.0969C2.92546 21.3973 2.92546 21.8842 3.22361 22.1846L9.76364 28.7748C10.0618 29.0752 10.545 29.075 10.8431 28.7748L15.5247 24.0575H16.8437C18.1019 24.0575 19.2847 23.5636 20.1743 22.6673L25.3545 17.4473Z" fill="#D20000"/>
<path d="M7.63347 18.5376C8.24819 19.1541 9.24505 19.1541 9.85976 18.5376C10.4747 17.9213 10.4747 16.9221 9.85976 16.3056C10.4747 16.9221 11.4713 16.9221 12.0862 16.3056C12.701 15.6893 12.701 14.6899 12.0862 14.0736C12.701 14.6899 13.6978 14.6899 14.3125 14.0736C14.9272 13.4573 14.9272 12.4578 14.3125 11.8415C14.9272 12.4578 15.9241 12.4578 16.5388 11.8415C17.1537 11.225 17.1537 10.2258 16.5388 9.60931L13.3998 6.46223C12.7851 5.84592 11.7883 5.84592 11.1735 6.46223C10.5588 7.07853 10.5588 8.07796 11.1735 8.69426L11.5668 9.0887C10.9521 8.4722 9.9552 8.4722 9.34049 9.0887C8.72577 9.705 8.72577 10.7044 9.34049 11.3207L10.1271 12.1094C9.51243 11.4931 8.51557 11.4931 7.90086 12.1094C7.28595 12.7257 7.28595 13.7251 7.90086 14.3414L8.68752 15.1303C8.07261 14.5138 7.07594 14.5138 6.46104 15.1303C5.84632 15.7466 5.84632 16.7459 6.46104 17.3624L7.63347 18.5376Z" fill="#D20000"/>
<path d="M17.6669 4.80901C17.7723 4.7161 17.8839 4.63072 18 4.55138L17.5829 4.184C17.3661 3.99278 17.0342 3.9455 16.76 4.06622L15 4.8414L16.3151 6L17.6669 4.80901Z" fill="#D20000"/>
</svg>
