<svg width="40" height="40" viewBox="0 0 40 40" fill="none" xmlns="http://www.w3.org/2000/svg">
<path d="M22.0158 34.1816H22.0029C22.0023 34.1816 22.0018 34.1816 22.0013 34.1816C21.6916 34.1816 21.4401 34.4323 21.4392 34.7422C21.4383 35.0526 21.6892 35.3049 21.9997 35.3058H22.0127H22.0142C22.3239 35.3058 22.5754 35.0552 22.5763 34.7453C22.5772 34.4349 22.3262 34.1825 22.0158 34.1816Z" fill="#434343"/>
<path d="M35.4258 26.1205C36.0538 25.411 36.4362 24.4792 36.4362 23.4593V22.2106C36.4362 19.9935 34.6324 18.1896 32.4152 18.1896C30.198 18.1896 28.3942 19.9934 28.3942 22.2106V23.4593C28.3942 24.4795 28.7767 25.4115 29.4051 26.1211C28.8574 26.2554 28.3361 26.4853 27.8663 26.8015C27.0921 25.6984 25.9855 24.845 24.693 24.3878C24.673 24.3795 24.6528 24.3722 24.6323 24.3664C24.3266 24.2617 24.0109 24.1789 23.6867 24.1203C24.4877 23.3378 25.0472 22.3102 25.2439 21.1599C25.468 21.2278 25.7021 21.2639 25.9417 21.2639C27.2667 21.2639 28.3446 20.186 28.3446 18.861C28.3446 18.1154 28.0018 17.4295 27.4372 16.9809C27.5014 16.8296 27.5376 16.6637 27.5376 16.4892V14.9449C27.5376 12.3119 25.3955 10.1699 22.7626 10.1699H21.4814C21.4216 10.1699 21.3618 10.173 21.3022 10.1776C20.8308 9.59299 20.1094 9.21796 19.3017 9.21796H18.6144C18.6206 9.09348 18.6249 8.96869 18.6249 8.84339C18.6249 4.75435 15.2982 1.42773 11.2092 1.42773C7.12028 1.42773 3.79359 4.75442 3.79359 8.84339C3.79359 12.9323 7.12028 16.259 11.2092 16.259C11.5643 16.259 11.9162 16.2333 12.2633 16.1839V16.6784C12.2633 16.7977 12.28 16.9134 12.3111 17.023C11.7749 17.4743 11.4563 18.1424 11.4563 18.8609C11.4563 20.1859 12.5342 21.2638 13.8592 21.2638C14.0988 21.2638 14.333 21.2276 14.557 21.1597C14.7536 22.3104 15.3135 23.3382 16.1147 24.1208C15.7962 24.1787 15.4856 24.2599 15.1846 24.3625C15.1531 24.3705 15.1221 24.3814 15.0916 24.3952C13.8082 24.8549 12.7078 25.7068 11.9364 26.8053C11.4738 26.4921 10.9541 26.2575 10.3963 26.1205C11.0243 25.4109 11.4066 24.4791 11.4066 23.4591V22.2105C11.4066 19.9934 9.60285 18.1895 7.38566 18.1895C5.16854 18.1895 3.36475 19.9933 3.36475 22.2105V23.4591C3.36475 24.479 3.74712 25.4108 4.37509 26.1204C2.27631 26.6353 0.714294 28.5315 0.714294 30.7866V35.6471C0.714294 35.9575 0.965962 36.2092 1.27639 36.2092C1.58681 36.2092 1.83848 35.9575 1.83848 35.6471V30.7866C1.83848 28.7571 3.48961 27.1059 5.51914 27.1059H5.69429C5.8175 27.1633 5.94401 27.2144 6.07359 27.2593L4.94873 31.6497C4.85392 32.0197 4.97323 32.4062 5.26005 32.6583L6.71917 33.941C6.90916 34.108 7.14733 34.1914 7.38559 34.1914C7.62384 34.1914 7.86209 34.108 8.05208 33.941L9.5112 32.6583C9.79801 32.4061 9.91725 32.0196 9.82244 31.6497L8.69759 27.2593C8.82717 27.2144 8.95367 27.1633 9.07689 27.1059H9.25196C10.0403 27.1059 10.7712 27.3556 11.3707 27.7793C10.9819 28.6061 10.7613 29.5264 10.7548 30.4962C10.7528 30.8066 11.0028 31.0599 11.3132 31.062H11.317C11.6257 31.062 11.877 30.8128 11.879 30.5037C11.8934 28.3351 13.2002 26.4645 15.0619 25.6201L19.3383 33.7649V38.0034C19.3383 38.3138 19.59 38.5655 19.9004 38.5655C20.2108 38.5655 20.4625 38.3138 20.4625 38.0034V33.7649L24.7397 25.6183C26.6143 26.466 27.9227 28.3525 27.9227 30.5401V38.0078C27.9227 38.3183 28.1744 38.5699 28.4848 38.5699C28.7952 38.5699 29.0469 38.3183 29.0469 38.0078V30.5401C29.0469 29.5525 28.8259 28.6158 28.4315 27.7759C29.0485 27.342 29.7883 27.1059 30.5488 27.1059H30.7238C30.847 27.1632 30.9736 27.2144 31.1031 27.2592L29.9782 31.6495C29.8834 32.0194 30.0027 32.4059 30.2896 32.6582L31.7487 33.9409C31.9387 34.1079 32.1769 34.1914 32.4151 34.1914C32.6534 34.1914 32.8916 34.1079 33.0816 33.9409L34.5407 32.6582C34.8276 32.406 34.9469 32.0195 34.8521 31.6496L34.6724 30.9484C34.5954 30.6477 34.2894 30.4666 33.9885 30.5434C33.6877 30.6204 33.5064 30.9267 33.5835 31.2274L33.7456 31.8605L32.4152 33.0301L31.0848 31.8605L32.2084 27.475C32.2769 27.4785 32.3459 27.4802 32.4152 27.4802C32.4845 27.4802 32.5535 27.4784 32.622 27.475L32.9077 28.5896C32.9727 28.8435 33.2012 29.0124 33.4518 29.0124C33.4979 29.0124 33.5449 29.0066 33.5917 28.9946C33.8925 28.9176 34.0737 28.6114 33.9967 28.3107L33.7273 27.2593C33.8578 27.2141 33.9854 27.1627 34.1094 27.1047C34.1178 27.1051 34.1261 27.106 34.1346 27.106H34.2818C36.3113 27.106 37.9625 28.7571 37.9625 30.7867V35.6472C37.9625 35.9576 38.2141 36.2093 38.5245 36.2093C38.835 36.2093 39.0866 35.9576 39.0866 35.6472V30.7867C39.0865 28.5315 37.5245 26.6353 35.4258 26.1205ZM4.48878 22.2106C4.48878 20.6133 5.78827 19.3138 7.38559 19.3138C8.9829 19.3138 10.2824 20.6133 10.2824 22.2106V23.4593C10.2824 25.0566 8.9829 26.3561 7.38559 26.3561C5.78827 26.3561 4.48886 25.0566 4.48886 23.4593V22.2106H4.48878ZM8.71602 31.8605L7.38566 33.0301L6.05515 31.8605L7.17874 27.475C7.24724 27.4785 7.31619 27.4802 7.38559 27.4802C7.45491 27.4802 7.52386 27.4784 7.59236 27.475L8.71602 31.8605ZM25.9417 20.1397C25.7222 20.1397 25.5113 20.084 25.3228 19.9793V18.4893C25.3228 18.266 25.3083 18.0394 25.2798 17.8132C25.7169 17.7976 26.1036 17.7679 26.4069 17.7379C26.4458 17.734 26.484 17.7283 26.5217 17.721C26.949 17.9383 27.2205 18.3763 27.2205 18.8609C27.2204 19.5661 26.6468 20.1397 25.9417 20.1397ZM22.7625 11.294C24.7756 11.294 26.4133 12.9318 26.4133 14.9449V16.4891C26.4133 16.5566 26.3628 16.6125 26.2958 16.6191C25.3346 16.7145 23.4881 16.8108 21.9204 16.384C21.6787 16.3182 21.4503 16.2083 21.2465 16.0625C21.6433 15.458 21.8711 14.7367 21.8711 13.9739V11.7874C21.8711 11.6186 21.8542 11.4537 21.823 11.294H22.7625V11.294ZM15.3354 15.0056C15.5932 14.8327 15.662 14.4835 15.489 14.2257C15.316 13.9679 14.9669 13.8991 14.7091 14.072C13.6726 14.7673 12.4623 15.1349 11.2091 15.1349C7.73993 15.1349 4.91762 12.3125 4.91762 8.84339C4.91762 5.3743 7.74 2.55192 11.2091 2.55192C14.6782 2.55192 17.5006 5.3743 17.5006 8.84339C17.5006 10.0771 17.1433 11.2718 16.4674 12.2982C16.2967 12.5574 16.3685 12.906 16.6277 13.0767C16.8869 13.2474 17.2355 13.1757 17.4063 12.9164C17.9253 12.1283 18.2837 11.256 18.4716 10.3421H19.3014C20.0984 10.3421 20.7468 10.9904 20.7468 11.7874V13.9739C20.7468 15.1741 19.9505 16.2291 18.8102 16.5395C16.8303 17.0785 14.4386 16.9067 13.5021 16.8079C13.4366 16.801 13.3872 16.7453 13.3872 16.6783V15.9334C14.0743 15.7227 14.73 15.4118 15.3354 15.0056ZM12.5804 18.8609C12.5804 18.4616 12.7656 18.0919 13.0744 17.8519C13.1723 17.8886 13.2758 17.9145 13.3843 17.926C13.6925 17.9585 14.0719 17.9913 14.4999 18.0134C14.4857 18.1728 14.478 18.3319 14.478 18.4893V19.9793C14.2895 20.084 14.0787 20.1397 13.8591 20.1397C13.154 20.1397 12.5804 19.5661 12.5804 18.8609ZM15.6022 20.2439V18.4893C15.6022 18.3413 15.6111 18.1911 15.6271 18.0406C16.7179 18.036 17.9583 17.9366 19.1057 17.6243C19.6257 17.4827 20.0954 17.2329 20.4942 16.9033C20.8303 17.1633 21.2152 17.3573 21.6252 17.4689C22.45 17.6934 23.3329 17.7886 24.1444 17.8158C24.18 18.0413 24.1986 18.2678 24.1986 18.4895V20.244C24.1986 22.6141 22.2704 24.5423 19.9004 24.5423C17.5304 24.5423 15.6022 22.614 15.6022 20.2439ZM19.9004 32.4172L18.1773 29.1354L19.4545 25.6465C19.6017 25.6586 19.7501 25.6664 19.9004 25.6664C20.0507 25.6664 20.1991 25.6586 20.3463 25.6465L21.6235 29.1354L19.9004 32.4172ZM17.2777 25.1404H17.5729C17.8174 25.2571 18.0719 25.3555 18.3348 25.4349L17.4719 27.7919L16.1437 25.262C16.5098 25.183 16.8889 25.1404 17.2777 25.1404ZM22.3288 27.7919L21.466 25.4349C21.7291 25.3554 21.9841 25.2569 22.2288 25.14C22.2315 25.14 22.2341 25.1404 22.2368 25.1404H22.523C22.9122 25.1404 23.2915 25.1827 23.6575 25.2613L22.3288 27.7919ZM29.5184 23.4592V22.2105C29.5184 20.6132 30.8179 19.3137 32.4152 19.3137C34.0125 19.3137 35.312 20.6132 35.312 22.2105V23.4592C35.312 25.0565 34.0125 26.356 32.4152 26.356C30.8179 26.356 29.5184 25.0565 29.5184 23.4592Z" fill="#434343"/>
<path d="M11.3158 32.6582C11.0054 32.6582 10.7538 32.9099 10.7538 33.2203V38.0084C10.7538 38.3189 11.0054 38.5705 11.3158 38.5705C11.6263 38.5705 11.8779 38.3189 11.8779 38.0084V33.2203C11.8779 32.9099 11.6263 32.6582 11.3158 32.6582Z" fill="#434343"/>
<path d="M15.8985 6.17234L14.8829 5.15668C14.71 4.98385 14.4803 4.88867 14.236 4.88867C13.9917 4.88867 13.762 4.98385 13.5892 5.1566L9.87521 8.87054L8.82889 7.82422C8.65614 7.65147 8.42643 7.55629 8.18211 7.55629C7.93779 7.55629 7.70808 7.65147 7.53533 7.82422L6.51951 8.83996C6.16285 9.19663 6.16285 9.77686 6.51951 10.1335L8.97908 12.5931C9.22618 12.8402 9.55062 12.9637 9.87521 12.9637C10.1997 12.9637 10.5243 12.8402 10.7714 12.5931L15.8986 7.46591C16.2552 7.10931 16.2552 6.52908 15.8985 6.17234ZM9.97653 11.7981C9.92062 11.854 9.82987 11.854 9.77403 11.7981L7.46263 9.48667L8.18218 8.76711L9.47785 10.0628C9.69729 10.2823 10.0532 10.2823 10.2727 10.0628L14.2361 6.09957L14.9556 6.81905L9.97653 11.7981Z" fill="#434343"/>
</svg>
