<svg width="32" height="33" viewBox="0 0 32 33" fill="none" xmlns="http://www.w3.org/2000/svg">
<path d="M4.78785 11.0646C5.15398 11.4307 5.74754 11.4307 6.11366 11.0646L8.76535 8.41291C9.13148 8.04678 9.13148 7.45322 8.76535 7.08709C8.39923 6.72097 7.80566 6.72097 7.43954 7.08709L5.45079 9.07584L4.78791 8.41297C4.42179 8.04684 3.82823 8.04684 3.4621 8.41291C3.09598 8.77897 3.09598 9.37259 3.46204 9.73872L4.78785 11.0646Z" fill="#D20000"/>
<path d="M23.3104 11.0646C23.6765 11.4307 24.2701 11.4307 24.6362 11.0646L27.2879 8.41291C27.654 8.04678 27.654 7.45322 27.2879 7.08709C26.9217 6.72097 26.3282 6.72097 25.9621 7.08709L23.9733 9.07584L23.3104 8.41291C22.9442 8.04678 22.3507 8.04678 21.9846 8.41291C21.6184 8.77897 21.6184 9.37259 21.9846 9.73872L23.3104 11.0646Z" fill="#D20000"/>
<path d="M14.0496 11.0646C14.4157 11.4307 15.0093 11.4307 15.3754 11.0646L18.0271 8.41291C18.3931 8.04678 18.3931 7.45322 18.0271 7.08709C17.6609 6.72097 17.0674 6.72097 16.7013 7.08709L14.7126 9.07578L14.0496 8.41284C13.6835 8.04672 13.0899 8.04672 12.7238 8.41284C12.3577 8.77891 12.3577 9.37253 12.7238 9.73866L14.0496 11.0646Z" fill="#D20000"/>
<path d="M17.496 14.3125H9.08203L12.4824 19.7531C12.6724 20.0571 12.6724 20.4429 12.4824 20.7469L9.08203 26.1875H17.496L21.2069 20.25L17.496 14.3125Z" fill="#D20000"/>
<path d="M6.871 14.3125H0.9375C0.41975 14.3125 0 14.7322 0 15.25V25.25C0 25.7677 0.41975 26.1875 0.9375 26.1875H6.871L10.5819 20.25L6.871 14.3125Z" fill="#D20000"/>
<path d="M31.8575 19.7531L28.7325 14.7531C28.5612 14.479 28.2607 14.3125 27.9375 14.3125H19.707L23.1074 19.7531C23.2974 20.0571 23.2974 20.4429 23.1074 20.7469L19.707 26.1875H27.9375C28.2607 26.1875 28.5612 26.021 28.7325 25.7469L31.8575 20.7469C32.0475 20.4429 32.0475 20.0571 31.8575 19.7531Z" fill="#D20000"/>
</svg>
