<svg width="32" height="33" viewBox="0 0 32 33" fill="none" xmlns="http://www.w3.org/2000/svg">
<path d="M16 9C17.1046 9 18 8.10457 18 7C18 5.89543 17.1046 5 16 5C14.8954 5 14 5.89543 14 7C14 8.10457 14.8954 9 16 9Z" fill="#D20000"/>
<path d="M27 13C28.1046 13 29 12.1046 29 11C29 9.89543 28.1046 9 27 9C25.8954 9 25 9.89543 25 11C25 12.1046 25.8954 13 27 13Z" fill="#D20000"/>
<path d="M5 13C6.10457 13 7 12.1046 7 11C7 9.89543 6.10457 9 5 9C3.89543 9 3 9.89543 3 11C3 12.1046 3.89543 13 5 13Z" fill="#D20000"/>
<path fill-rule="evenodd" clip-rule="evenodd" d="M26.9824 12.5689C27.0585 12.1961 26.8825 11.8186 26.5484 11.631C26.213 11.4446 25.7932 11.4903 25.5078 11.7459C25.5078 11.7459 24.2639 12.8608 22.8606 14.1188C22.2041 14.7074 21.2944 14.936 20.4322 14.7308C19.57 14.5257 18.8672 13.9125 18.5556 13.093L16.8348 8.57097C16.704 8.22745 16.3722 8 16 8C15.6278 8 15.296 8.22745 15.1652 8.57097L13.4444 13.093C13.1328 13.9125 12.43 14.5257 11.5678 14.7308C10.7056 14.936 9.79585 14.7074 9.1394 14.1188C7.73612 12.8608 6.4922 11.7459 6.4922 11.7459C6.20679 11.4903 5.78699 11.4446 5.45163 11.631C5.11746 11.8186 4.94146 12.1961 5.01757 12.5689C5.01757 12.5689 6.34117 19.0934 7.01308 22.4078C7.31871 23.9155 8.66133 25 10.2204 25H21.7796C23.3387 25 24.6813 23.9155 24.9869 22.4078C25.6588 19.0934 26.9824 12.5689 26.9824 12.5689Z" fill="#D20000"/>
<path fill-rule="evenodd" clip-rule="evenodd" d="M23.1111 27H8.88889C8.39822 27 8 27.448 8 28C8 28.552 8.39822 29 8.88889 29H23.1111C23.6018 29 24 28.552 24 28C24 27.448 23.6018 27 23.1111 27Z" fill="#D20000"/>
</svg>
