<svg width="32" height="33" viewBox="0 0 32 33" fill="none" xmlns="http://www.w3.org/2000/svg">
<path d="M25.1799 4.9977L16.78 3.08294C16.2656 2.97235 15.7344 2.97235 15.22 3.08294L6.82013 4.9977C6.02009 5.17931 5.30458 5.6347 4.79184 6.2886C4.2791 6.9425 3.99982 7.75577 4.00017 8.594V13.5896C3.98506 17.0733 5.00041 20.4803 6.91287 23.3631C8.82532 26.2458 11.5455 28.4696 14.716 29.7422C15.1234 29.9134 15.5597 30.001 16 30C16.4391 29.9989 16.8742 29.9157 17.284 29.7545C20.4536 28.4768 23.1723 26.2501 25.0843 23.3659C26.9963 20.4817 28.0124 17.0743 27.9999 13.5896V8.594C28.0002 7.75577 27.721 6.9425 27.2082 6.2886C26.6955 5.6347 25.98 5.17931 25.1799 4.9977ZM21.7 13.7491L15.928 19.5548C15.7032 19.7834 15.3991 19.9117 15.082 19.9117C14.765 19.9117 14.4609 19.7834 14.236 19.5548L11.5001 16.8054C11.3876 16.6913 11.2983 16.5555 11.2374 16.4059C11.1765 16.2564 11.1451 16.0959 11.1451 15.9339C11.1451 15.7719 11.1765 15.6114 11.2374 15.4619C11.2983 15.3123 11.3876 15.1765 11.5001 15.0624C11.7249 14.8338 12.029 14.7055 12.3461 14.7055C12.6631 14.7055 12.9672 14.8338 13.1921 15.0624L15.088 16.9649L20.02 12.0553C20.1327 11.9417 20.2661 11.8518 20.4127 11.791C20.5593 11.7301 20.7162 11.6993 20.8745 11.7005C21.0327 11.7016 21.1891 11.7346 21.3349 11.7976C21.4807 11.8606 21.6129 11.9523 21.724 12.0676C21.8351 12.1828 21.9229 12.3193 21.9824 12.4693C22.0419 12.6192 22.072 12.7797 22.0709 12.9416C22.0697 13.1034 22.0375 13.2634 21.9759 13.4125C21.9143 13.5616 21.8246 13.6968 21.712 13.8105L21.7 13.7491Z" fill="#D20000"/>
</svg>
