<svg width="40" height="40" viewBox="0 0 40 40" fill="none" xmlns="http://www.w3.org/2000/svg">
<path d="M34.1647 33.013C34.1647 33.1735 34.1009 33.3275 33.9874 33.441C33.8738 33.5545 33.7199 33.6183 33.5593 33.6183H29.9274V34.8289H33.5593C34.041 34.8289 34.5029 34.6376 34.8434 34.2971C35.184 33.9565 35.3753 33.4946 35.3753 33.013V29.9863H34.1647V33.013Z" fill="#434343"/>
<path d="M34.1646 27.5664H35.3753V28.7771H34.1646V27.5664Z" fill="#434343"/>
<path d="M6.31966 33.013V29.9863H5.10901V33.013C5.10901 33.4946 5.30033 33.9565 5.6409 34.2971C5.98146 34.6376 6.44336 34.8289 6.92499 34.8289H10.557V33.6183H6.92499C6.76445 33.6183 6.61048 33.5545 6.49696 33.441C6.38344 33.3275 6.31966 33.1735 6.31966 33.013Z" fill="#434343"/>
<path d="M5.10901 27.5664H6.31966V28.7771H5.10901V27.5664Z" fill="#434343"/>
<path d="M8.74097 8.80273H9.95162V10.0134H8.74097V8.80273Z" fill="#434343"/>
<path d="M11.1623 8.80273H12.3729V10.0134H11.1623V8.80273Z" fill="#434343"/>
<path d="M28.1115 8.80273H29.3221V10.0134H28.1115V8.80273Z" fill="#434343"/>
<path d="M30.5327 8.80273H31.7433V10.0134H30.5327V8.80273Z" fill="#434343"/>
<path d="M18.4261 20.3027H19.6368V21.5134H18.4261V20.3027Z" fill="#434343"/>
<path d="M20.8475 20.3027H22.0581V21.5134H20.8475V20.3027Z" fill="#434343"/>
<path d="M14.1889 34.2266H15.3996V35.4372H14.1889V34.2266Z" fill="#434343"/>
<path d="M16.6102 34.2266H23.8742V35.4372H16.6102V34.2266Z" fill="#434343"/>
<path d="M34.3826 17.8932L32.3487 16.3678V14.6971C32.9085 14.3066 33.3659 13.7869 33.6821 13.1821C33.9982 12.5772 34.1638 11.905 34.1647 11.2225V8.63168C34.7239 8.24349 35.181 7.72595 35.4972 7.1231C35.8134 6.52025 35.9793 5.84994 35.9807 5.16921V2.74791C35.9807 2.58736 35.9169 2.4334 35.8034 2.31987C35.6899 2.20635 35.5359 2.14258 35.3754 2.14258H28.1114C26.988 2.14386 25.911 2.5907 25.1166 3.38507C24.3223 4.17943 23.8754 5.25646 23.8742 6.37987V7.59052C23.8756 8.07171 24.0674 8.53277 24.4076 8.87302C24.7479 9.21328 25.209 9.40506 25.6901 9.4065V11.2225C25.6911 11.905 25.8567 12.5772 26.1728 13.1821C26.4889 13.7869 26.9463 14.3066 27.5061 14.6971V16.3678L26.241 17.3181C26.2744 17.1038 26.2926 16.8873 26.2955 16.6704V14.2491C26.2955 14.0886 26.2317 13.9346 26.1182 13.8211C26.0046 13.7076 25.8507 13.6438 25.6901 13.6438H18.4262C18.0165 13.6456 17.609 13.7047 17.2156 13.8193V8.80117C17.2156 7.0352 16.514 5.34156 15.2653 4.09284C14.0166 2.84411 12.3229 2.14258 10.557 2.14258C8.791 2.14258 7.09736 2.84411 5.84863 4.09284C4.5999 5.34156 3.89837 7.0352 3.89837 8.80117V18.6438C3.6937 18.7844 3.50314 18.9446 3.32936 19.122C2.93193 19.5128 2.61683 19.9794 2.40266 20.494C2.18848 21.0086 2.07959 21.561 2.08239 22.1184V24.5397C2.08383 25.0209 2.27561 25.4819 2.61587 25.8222C2.95612 26.1624 3.41718 26.3542 3.89837 26.3557H17.2156C17.4223 26.3564 17.6274 26.3195 17.8209 26.2467V27.869L15.787 29.3944C14.7035 29.4502 13.6826 29.9195 12.9348 30.7056C12.1871 31.4916 11.7693 32.5346 11.7676 33.6196V36.0409C11.7691 36.5221 11.9608 36.9831 12.3011 37.3234C12.6413 37.6636 13.1024 37.8554 13.5836 37.8569H26.9008C27.382 37.8554 27.843 37.6636 28.1833 37.3234C28.5235 36.9831 28.7153 36.5221 28.7168 36.0409V33.6196C28.7151 32.5346 28.2973 31.4916 27.5495 30.7056C26.8018 29.9195 25.7809 29.4502 24.6974 29.3944L22.6635 27.869V26.2467C22.857 26.3195 23.0621 26.3564 23.2688 26.3557H36.586C37.0672 26.3542 37.5283 26.1624 37.8685 25.8222C38.2088 25.4819 38.4006 25.0209 38.402 24.5397V22.1184C38.4003 21.0334 37.9826 19.9904 37.2348 19.2044C36.487 18.4183 35.4661 17.949 34.3826 17.8932ZM25.6901 7.59052V8.19585C25.5296 8.19585 25.3756 8.13207 25.2621 8.01855C25.1486 7.90503 25.0848 7.75106 25.0848 7.59052V6.37987C25.0848 5.57715 25.4037 4.80732 25.9713 4.23971C26.5389 3.67211 27.3087 3.35323 28.1114 3.35323H34.77V5.16921C34.7686 5.91176 34.4926 6.62755 33.9952 7.1789C33.9157 7.09564 33.8154 7.03505 33.7047 7.00335L28.8621 5.7927C28.7216 5.75684 28.5729 5.77409 28.4444 5.84113L26.0231 7.05178C25.9222 7.10078 25.8374 7.17744 25.7784 7.27283C25.7195 7.36822 25.6889 7.4784 25.6901 7.59052ZM26.9008 11.2225V7.96582L28.7894 7.02151L32.9541 8.06267V11.2225C32.9541 12.0252 32.6352 12.795 32.0676 13.3626C31.5 13.9302 30.7301 14.2491 29.9274 14.2491C29.1247 14.2491 28.3549 13.9302 27.7873 13.3626C27.2197 12.795 26.9008 12.0252 26.9008 11.2225ZM28.4746 17.1547C28.5493 17.0979 28.61 17.0246 28.652 16.9407C28.694 16.8567 28.7161 16.7643 28.7168 16.6704V15.2842C29.5069 15.5183 30.3479 15.5183 31.1381 15.2842V16.6704C31.1387 16.7643 31.1609 16.8567 31.2029 16.9407C31.2448 17.0246 31.3055 17.0979 31.3802 17.1547L33.063 18.4198L29.9274 20.2116L26.7918 18.4198L28.4746 17.1547ZM5.10902 8.80117C5.10902 7.35629 5.683 5.97058 6.70469 4.9489C7.72638 3.92721 9.11208 3.35323 10.557 3.35323C12.0018 3.35323 13.3876 3.92721 14.4092 4.9489C15.4309 5.97058 16.0049 7.35629 16.0049 8.80117V14.4065C15.5256 14.7417 15.1206 15.1722 14.8154 15.6711C14.5102 16.1701 14.3114 16.7266 14.2313 17.306L12.9783 16.3678V14.6971C13.5381 14.3066 13.9955 13.7869 14.3116 13.1821C14.6277 12.5772 14.7933 11.905 14.7943 11.2225V7.59052C14.7941 7.45533 14.7488 7.32407 14.6654 7.21766C14.582 7.11124 14.4654 7.0358 14.3342 7.00335L9.49159 5.7927C9.35113 5.75719 9.20252 5.77442 9.07391 5.84113L6.65261 7.05178C6.55175 7.10078 6.4669 7.17744 6.40795 7.27283C6.349 7.36822 6.31839 7.4784 6.31968 7.59052V11.2225C6.32063 11.905 6.4862 12.5772 6.80234 13.1821C7.11847 13.7869 7.57585 14.3066 8.13566 14.6971V16.3678L6.10176 17.8932C5.7655 17.9077 5.43219 17.9626 5.10902 18.0566V8.80117ZM9.10418 17.1547C9.17888 17.0979 9.23955 17.0246 9.28153 16.9407C9.3235 16.8567 9.34566 16.7643 9.34631 16.6704V15.2842C10.1364 15.5183 10.9775 15.5183 11.7676 15.2842V16.6704C11.7683 16.7643 11.7904 16.8567 11.8324 16.9407C11.8744 17.0246 11.9351 17.0979 12.0098 17.1547L13.6926 18.4198L10.557 20.2116L7.42137 18.4198L9.10418 17.1547ZM7.53033 11.2225V7.96582L9.41895 7.02151L13.5836 8.06267V11.2225C13.5836 12.0252 13.2647 12.795 12.6971 13.3626C12.1295 13.9302 11.3597 14.2491 10.557 14.2491C9.75425 14.2491 8.98442 13.9302 8.41681 13.3626C7.84921 12.795 7.53033 12.0252 7.53033 11.2225ZM3.89837 25.145C3.73783 25.145 3.58386 25.0812 3.47034 24.9677C3.35682 24.8542 3.29304 24.7002 3.29304 24.5397V22.1184C3.29289 21.342 3.59135 20.5954 4.12662 20.0331C4.66189 19.4707 5.39294 19.1359 6.16835 19.0978L10.2543 21.4343C10.3471 21.485 10.4512 21.5115 10.557 21.5115C10.6627 21.5115 10.7668 21.485 10.8596 21.4343L14.2374 19.5034C14.3314 19.9019 14.557 20.2572 14.8776 20.512C15.1983 20.7668 15.5954 20.9062 16.0049 20.9077V22.7237C16.0052 23.5899 16.2714 24.435 16.7676 25.145H3.89837ZM16.3378 18.553C16.237 18.602 16.1521 18.6787 16.0932 18.774C16.0342 18.8694 16.0036 18.9796 16.0049 19.0917V19.6971C15.8444 19.6971 15.6904 19.6333 15.5769 19.5198C15.4634 19.4062 15.3996 19.2523 15.3996 19.0917V17.8811C15.3996 17.0784 15.7185 16.3085 16.2861 15.7409C16.8537 15.1733 17.6235 14.8544 18.4262 14.8544H25.0848V16.6704C25.0834 17.413 24.8074 18.1288 24.31 18.6801C24.2304 18.5968 24.1301 18.5363 24.0194 18.5046L19.1768 17.2939C19.0364 17.2584 18.8878 17.2756 18.7591 17.3423L16.3378 18.553ZM27.5061 33.6196V36.0409C27.5061 36.2014 27.4423 36.3554 27.3288 36.4689C27.2153 36.5824 27.0613 36.6462 26.9008 36.6462H13.5836C13.4231 36.6462 13.2691 36.5824 13.1556 36.4689C13.042 36.3554 12.9783 36.2014 12.9783 36.0409V33.6196C12.9796 32.8437 13.2785 32.0978 13.8135 31.5358C14.3485 30.9739 15.0787 30.6385 15.8536 30.599L19.9395 32.9356C20.0324 32.9862 20.1364 33.0127 20.2422 33.0127C20.348 33.0127 20.452 32.9862 20.5449 32.9356L24.6308 30.599C25.4057 30.6385 26.1359 30.9739 26.6709 31.5358C27.2058 32.0978 27.5048 32.8437 27.5061 33.6196ZM23.3778 29.921L20.2422 31.7128L17.1066 29.921L18.7894 28.6559C18.8641 28.5991 18.9248 28.5259 18.9668 28.4419C19.0087 28.358 19.0309 28.2655 19.0315 28.1716V26.7854C19.8217 27.0195 20.6627 27.0195 21.4529 26.7854V28.1716C21.4535 28.2655 21.4757 28.358 21.5176 28.4419C21.5596 28.5259 21.6203 28.5991 21.695 28.6559L23.3778 29.921ZM23.2688 22.7237C23.2688 23.5264 22.95 24.2962 22.3824 24.8638C21.8147 25.4314 21.0449 25.7503 20.2422 25.7503C19.4395 25.7503 18.6696 25.4314 18.102 24.8638C17.5344 24.2962 17.2156 23.5264 17.2156 22.7237V19.467L19.1042 18.5227L23.2688 19.5639V22.7237ZM37.1913 24.5397C37.1913 24.7002 37.1276 24.8542 37.0141 24.9677C36.9005 25.0812 36.7466 25.145 36.586 25.145H23.7168C24.2129 24.435 24.4792 23.5899 24.4795 22.7237V20.1329C24.8842 19.8512 25.2366 19.5009 25.5206 19.0978H25.5388L29.6248 21.4343C29.7176 21.485 29.8217 21.5115 29.9274 21.5115C30.0332 21.5115 30.1373 21.485 30.2301 21.4343L34.316 19.0978C35.0909 19.1373 35.8211 19.4726 36.3561 20.0346C36.8911 20.5966 37.19 21.3425 37.1913 22.1184V24.5397Z" fill="#434343"/>
<path d="M25.0847 34.2266H26.2954V35.4372H25.0847V34.2266Z" fill="#434343"/>
</svg>
