<svg width="40" height="40" viewBox="0 0 40 40" fill="none" xmlns="http://www.w3.org/2000/svg">
<path d="M34.2381 19.3801H31.7619C31.6806 19.3803 31.6 19.3644 31.5248 19.3334C31.4496 19.3024 31.3813 19.2568 31.3238 19.1992C31.2662 19.1417 31.2206 19.0734 31.1896 18.9982C31.1586 18.923 31.1427 18.8424 31.1429 18.7611V18.4141C32.6086 17.5099 33.6571 16.0626 34.0596 14.3881C34.6153 14.2877 35.1199 14.0004 35.4899 13.5739C35.8599 13.1473 36.073 12.6071 36.0938 12.0428C36.1147 11.4785 35.942 10.924 35.6045 10.4713C35.267 10.0186 34.7849 9.69486 34.2381 9.55376V6.99918C34.2367 5.9132 33.828 4.86725 33.0928 4.06796C32.3576 3.26867 31.3494 2.77418 30.2673 2.68217C30.0065 2.29464 29.6542 1.97742 29.2415 1.7586C28.8288 1.53979 28.3686 1.42615 27.9015 1.42775H25.5714C24.0943 1.42941 22.6782 2.01693 21.6337 3.06142C20.5892 4.1059 20.0017 5.52205 20 6.99918V8.85632C20 9.0205 20.0652 9.17796 20.1813 9.29405C20.2974 9.41015 20.4549 9.47537 20.6191 9.47537H21.2381V9.55345C20.6916 9.69453 20.2097 10.0181 19.8722 10.4705C19.5348 10.9229 19.362 11.4771 19.3825 12.0411C19.403 12.6052 19.6157 13.1453 19.9851 13.572C20.3546 13.9986 20.8588 14.2863 21.4141 14.3873C21.4302 14.4552 21.4473 14.5229 21.4656 14.5903L22.6603 14.2652C22.5378 13.8137 22.4759 13.348 22.4762 12.8801V9.45664C24.9208 9.33978 27.3016 8.63807 29.4188 7.41046C29.5896 8.06246 29.9204 8.66152 30.3813 9.1533C30.8422 9.64507 31.4186 10.014 32.0581 10.2266L33 10.5406V12.8801C32.9999 13.8456 32.7342 14.7924 32.232 15.617C31.7298 16.4416 31.0104 17.1121 30.1526 17.5552C29.2948 17.9982 28.3316 18.1968 27.3685 18.1291C26.4054 18.0613 25.4795 17.73 24.6922 17.1712L23.9745 18.1801C24.2832 18.3994 24.6104 18.5913 24.9524 18.7537V18.7611C24.9522 18.9252 24.8869 19.0826 24.7709 19.1986C24.6548 19.3147 24.4975 19.3799 24.3333 19.3801H23.7143V17.523C23.7136 16.8665 23.4524 16.2371 22.9882 15.7729C22.524 15.3087 21.8946 15.0475 21.2381 15.0468H3.90478C3.24828 15.0475 2.61888 15.3087 2.15466 15.7729C1.69045 16.2371 1.42933 16.8665 1.42859 17.523V19.3801H2.66668V17.523C2.66707 17.1947 2.79764 16.8801 3.02974 16.648C3.26185 16.4158 3.57654 16.2853 3.90478 16.2849H21.2381C21.5664 16.2853 21.881 16.4158 22.1131 16.648C22.3453 16.8801 22.4758 17.1947 22.4762 17.523V28.6658C22.4758 28.9941 22.3453 29.3088 22.1131 29.5409C21.881 29.773 21.5664 29.9036 21.2381 29.9039H14.3984L15.0339 26.9384C15.0532 26.8481 15.0521 26.7547 15.0307 26.6649C15.0092 26.5752 14.968 26.4913 14.91 26.4195C14.8519 26.3477 14.7786 26.2899 14.6953 26.2501C14.612 26.2103 14.5209 26.1897 14.4286 26.1897H10.0953C9.9741 26.1897 9.85562 26.2252 9.75448 26.2919C9.65334 26.3586 9.57399 26.4535 9.52627 26.5649L8.09527 29.9039H3.90478C3.57654 29.9036 3.26185 29.773 3.02974 29.5409C2.79764 29.3088 2.66707 28.9941 2.66668 28.6658V20.6182H1.42859V28.6658C1.42933 29.3223 1.69045 29.9517 2.15466 30.416C2.61888 30.8802 3.24828 31.1413 3.90478 31.142H7.5649L5.97278 34.8563H2.04764C1.88345 34.8563 1.726 34.9215 1.6099 35.0376C1.49381 35.1537 1.42859 35.3112 1.42859 35.4754V37.9516C1.42859 38.1157 1.49381 38.2732 1.6099 38.3893C1.726 38.5054 1.88345 38.5706 2.04764 38.5706H37.9524C38.1166 38.5706 38.274 38.5054 38.3901 38.3893C38.5062 38.2732 38.5714 38.1157 38.5714 37.9516V35.4754C38.5714 35.3112 38.5062 35.1537 38.3901 35.0376C38.274 34.9215 38.1166 34.8563 37.9524 34.8563H36.8895C37.418 34.3925 37.8414 33.8213 38.1315 33.1808C38.4215 32.5402 38.5715 31.8452 38.5714 31.142V30.523H37.3333V31.142C37.3322 32.1268 36.9405 33.0709 36.2442 33.7672C35.5479 34.4635 34.6038 34.8552 33.6191 34.8563H23.7143V33.6182C23.7149 33.1259 23.9107 32.6538 24.2589 32.3057C24.607 31.9575 25.0791 31.7617 25.5714 31.7611H33.6191C33.7832 31.7611 33.9407 31.6959 34.0568 31.5798C34.1729 31.4637 34.2381 31.3062 34.2381 31.142V26.8087H37.3333V29.2849H38.5714V23.7135C38.5701 22.5646 38.1132 21.4632 37.3008 20.6508C36.4884 19.8384 35.387 19.3814 34.2381 19.3801ZM34.2381 12.8801V10.881C34.4025 10.9757 34.5429 11.107 34.6484 11.2647C34.7539 11.4224 34.8217 11.6023 34.8465 11.7904C34.8714 11.9785 34.8526 12.1698 34.7916 12.3494C34.7307 12.5291 34.6292 12.6923 34.495 12.8265C34.4172 12.9037 34.3296 12.9703 34.2345 13.0247C34.2355 12.9765 34.2381 12.9286 34.2381 12.8801ZM20.6191 11.9516C20.6187 11.789 20.6506 11.6281 20.7127 11.4779C20.7749 11.3277 20.8661 11.1914 20.9812 11.0766C21.058 11.0005 21.1444 10.9346 21.2381 10.8807V12.8801C21.2381 12.928 21.2394 12.9758 21.2405 13.0236C21.0519 12.9152 20.8951 12.7591 20.786 12.5709C20.6769 12.3827 20.6193 12.1691 20.6191 11.9516ZM29.2857 6.0443C27.0257 7.47913 24.4035 8.23986 21.7265 8.23727H21.2381V7.54773C26.5374 6.8537 28.4059 5.04013 28.4854 4.96073L27.6138 4.08138C27.6094 4.08571 27.1591 4.51386 26.0723 5.00879C25.158 5.42517 23.6137 5.9663 21.297 6.29037C21.3629 5.89034 21.4851 5.50165 21.6599 5.13585C23.9759 5.07046 25.1765 4.48399 25.2293 4.4576L24.6789 3.34858C24.6701 3.35291 23.9771 3.6807 22.6198 3.83058C23.4201 3.08168 24.4754 2.66528 25.5714 2.66585H27.9015C28.1797 2.66485 28.4535 2.73595 28.696 2.87221C28.9386 3.00847 29.1418 3.20525 29.2857 3.44337V6.0443ZM32.4497 9.0521C31.8886 8.86564 31.4005 8.50712 31.0548 8.02746C30.7091 7.5478 30.5233 6.9714 30.5238 6.38013V3.96585C31.2225 4.10951 31.8502 4.48965 32.3013 5.0422C32.7524 5.59475 32.9991 6.28591 33 6.99918V9.23549L32.4497 9.0521ZM26.1418 19.182C27.3915 19.4977 28.7067 19.4351 29.9207 19.002C29.9729 19.4085 30.1588 19.7861 30.449 20.0755C30.5403 20.1665 30.6408 20.2478 30.7488 20.3182L30.5724 20.5534C30.2589 20.9727 29.8487 21.3101 29.3768 21.5369C28.9049 21.7637 28.3853 21.8732 27.862 21.8562C27.3387 21.8391 26.8273 21.696 26.3711 21.439C25.915 21.182 25.5277 20.8186 25.242 20.3798C25.4667 20.2533 25.6627 20.0815 25.8176 19.8753C25.9725 19.6691 26.0829 19.433 26.1418 19.182ZM22.4762 33.6182V34.8563H19.381V33.6182H22.4762ZM21.162 31.142H21.2381C21.4469 31.1422 21.655 31.1158 21.8572 31.0636V32.3801H20.6667L21.162 31.142ZM16.2096 31.142H19.8285L19.3333 32.3801H18.7619C18.5977 32.3801 18.4403 32.4454 18.3242 32.5614C18.2081 32.6775 18.1429 32.835 18.1429 32.9992V34.8563H16.9048V32.9992C16.9048 32.835 16.8396 32.6775 16.7235 32.5614C16.6074 32.4454 16.4499 32.3801 16.2857 32.3801H15.7143L16.2096 31.142ZM14.1331 31.142H14.8759L14.3807 32.3801H13.8676L14.1331 31.142ZM15.6667 33.6182V34.8563H13.3375L13.6028 33.6182H15.6667ZM10.5034 27.4277H13.6625L12.0707 34.8563H7.31952L10.5034 27.4277ZM37.3333 36.0944V37.3325H2.66668V36.0944H37.3333ZM37.3333 25.5706H34.2381V23.7135H33V30.523H25.5714C25.0907 30.523 24.6166 30.6351 24.1868 30.8504C23.7569 31.0657 23.3832 31.3783 23.0953 31.7633V30.3007C23.4944 29.8497 23.7146 29.2681 23.7143 28.6658V20.6182H23.9512C24.2949 21.3021 24.8075 21.8869 25.4405 22.3171C26.0736 22.7474 26.806 23.0088 27.5684 23.0767C28.3307 23.1446 29.0978 23.0167 29.7969 22.7051C30.496 22.3935 31.1039 21.9085 31.5631 21.2961L32.0714 20.6182H34.2381C35.0587 20.6191 35.8455 20.9455 36.4258 21.5258C37.006 22.1061 37.3324 22.8928 37.3333 23.7135V25.5706ZM30.4761 23.7754L31.0158 24.8897C30.0154 25.3742 28.9115 25.6064 27.8006 25.5661C26.6897 25.5258 25.6056 25.2141 24.6429 24.6583L25.2619 23.5861C26.0496 24.0408 26.9366 24.2959 27.8455 24.3288C28.7544 24.3618 29.6576 24.1718 30.4762 23.7754H30.4761ZM26.1905 11.3325C26.1905 11.5774 26.1179 11.8168 25.9818 12.0204C25.8458 12.224 25.6524 12.3827 25.4262 12.4764C25.2 12.5701 24.951 12.5946 24.7109 12.5468C24.4707 12.499 24.2501 12.3811 24.0769 12.208C23.9038 12.0348 23.7859 11.8142 23.7381 11.5741C23.6903 11.3339 23.7148 11.0849 23.8085 10.8587C23.9023 10.6325 24.0609 10.4391 24.2645 10.3031C24.4682 10.167 24.7075 10.0944 24.9524 10.0944C25.2806 10.0948 25.5953 10.2254 25.8274 10.4575C26.0595 10.6896 26.1901 11.0043 26.1905 11.3325ZM28.6667 11.3325C28.6667 11.0876 28.7393 10.8483 28.8753 10.6447C29.0114 10.4411 29.2047 10.2824 29.431 10.1887C29.6572 10.095 29.9062 10.0704 30.1463 10.1182C30.3865 10.166 30.6071 10.2839 30.7802 10.457C30.9534 10.6302 31.0713 10.8508 31.1191 11.091C31.1669 11.3311 31.1423 11.5801 31.0486 11.8063C30.9549 12.0325 30.7962 12.2259 30.5926 12.362C30.389 12.498 30.1497 12.5706 29.9048 12.5706C29.5765 12.5702 29.2618 12.4397 29.0297 12.2075C28.7976 11.9754 28.6671 11.6608 28.6667 11.3325ZM28.9481 13.3599L29.6233 14.3976C28.9701 14.8223 28.2077 15.0483 27.4286 15.0483C26.6495 15.0483 25.8871 14.8223 25.2338 14.3976L25.9091 13.3599C26.3613 13.6539 26.8892 13.8104 27.4286 13.8104C27.968 13.8104 28.4959 13.6539 28.9481 13.3599ZM10.0953 19.3801H7.61906V18.142H10.0953V19.3801ZM13.8095 18.142V19.3801H11.3334V18.142H13.8095ZM17.5238 18.142V19.3801H15.0476V18.142H17.5238ZM21.2381 19.3801H18.7619V18.142H21.2381V19.3801ZM6.38097 18.142V19.3801H3.90478V18.142H6.38097Z" fill="#434343"/>
</svg>
