<svg width="40" height="40" viewBox="0 0 40 40" fill="none" xmlns="http://www.w3.org/2000/svg">
<path d="M36.0407 9.07822H27.7083V6.32524C27.7083 4.80721 26.4734 3.57227 24.9554 3.57227H15.0447C13.5266 3.57227 12.2917 4.80721 12.2917 6.32524V9.62881C12.2917 9.93296 12.5382 10.1794 12.8423 10.1794H36.0407C36.9514 10.1794 37.6925 10.9204 37.6925 11.8312V25.0455C37.6925 25.9562 36.9514 26.6973 36.0407 26.6973H24.8599C24.9211 26.5248 24.9554 26.3398 24.9554 26.1467C24.9554 25.4289 24.495 24.8169 23.8542 24.5896V19.5395C23.8542 19.2354 23.6077 18.9889 23.3036 18.9889H16.6964C16.3924 18.9889 16.1458 19.2354 16.1458 19.5395V24.5896C15.505 24.8169 15.0447 25.4289 15.0447 26.1467C15.0447 26.3398 15.0789 26.5248 15.1401 26.6973H3.95934C3.0485 26.6973 2.30755 25.9562 2.30755 25.0455V11.8312C2.30755 10.9204 3.0485 10.1794 3.95934 10.1794H10.6399C10.944 10.1794 11.1905 9.93296 11.1905 9.62881C11.1905 9.32466 10.944 9.07822 10.6399 9.07822H3.95934C2.44131 9.07822 1.20636 10.3132 1.20636 11.8312V25.0455C1.20636 25.9442 1.63935 26.7436 2.30755 27.2464V33.855C2.30755 35.373 3.5425 36.608 5.06053 36.608H34.9395C36.4575 36.608 37.6925 35.373 37.6925 33.855V27.2464C38.3607 26.7437 38.7937 25.9443 38.7937 25.0455V11.8312C38.7937 10.3132 37.5587 9.07822 36.0407 9.07822ZM24.4048 9.07822H15.5952V7.97703H24.4048V9.07822ZM26.6072 9.07822H25.506V7.42643C25.506 7.12228 25.2595 6.87584 24.9554 6.87584H15.0447C14.7406 6.87584 14.4941 7.12228 14.4941 7.42643V9.07822H13.3929V6.32524C13.3929 5.41448 14.1338 4.67346 15.0447 4.67346H24.9554C25.8661 4.67346 26.6072 5.41448 26.6072 6.32524V9.07822ZM22.753 20.0901V24.4949H17.247V20.0901H22.753ZM16.1458 26.1467C16.1458 25.843 16.3928 25.5961 16.6964 25.5961H23.3036C23.6072 25.5961 23.8542 25.843 23.8542 26.1467C23.8542 26.4503 23.6072 26.6973 23.3036 26.6973H16.6964C16.3928 26.6973 16.1458 26.4503 16.1458 26.1467ZM17.247 27.7985H22.753V30.5514C22.753 32.0695 21.518 33.3044 20 33.3044C18.482 33.3044 17.247 32.0695 17.247 30.5514V27.7985ZM3.40874 33.855V27.743C3.58669 27.7793 3.77081 27.7985 3.95934 27.7985H6.71231V33.855C6.71231 34.4743 6.91794 35.0463 7.26438 35.5068H5.06053C4.1497 35.5068 3.40874 34.7658 3.40874 33.855ZM9.46529 35.5068C8.55446 35.5068 7.8135 34.7658 7.8135 33.855V27.7985H16.1458V30.5514C16.1458 32.6766 17.8748 34.4056 20 34.4056C22.1252 34.4056 23.8542 32.6766 23.8542 30.5514V27.7985H32.1865V33.855C32.1865 34.7658 31.4455 35.5068 30.5347 35.5068H9.46529ZM36.5913 33.855C36.5913 34.7658 35.8503 35.5068 34.9395 35.5068H32.7356C33.0821 35.0463 33.2877 34.4743 33.2877 33.855V27.7985H36.0407C36.2292 27.7985 36.4133 27.7793 36.5913 27.743V33.855Z" fill="#434343"/>
<path d="M20 32.204C20.9108 32.204 21.6518 31.4629 21.6518 30.5522C21.6518 29.6414 20.9108 28.9004 20 28.9004C19.0892 28.9004 18.3482 29.6414 18.3482 30.5522C18.3482 31.4629 19.0892 32.204 20 32.204ZM20 30.0016C20.3037 30.0016 20.5506 30.2485 20.5506 30.5522C20.5506 30.8558 20.3037 31.1028 20 31.1028C19.6964 31.1028 19.4494 30.8558 19.4494 30.5522C19.4494 30.2485 19.6964 30.0016 20 30.0016Z" fill="#434343"/>
</svg>
