<svg width="32" height="33" viewBox="0 0 32 33" fill="none" xmlns="http://www.w3.org/2000/svg">
<path d="M17.129 17C16.1069 18.8266 14.1907 20.059 12 20.059C9.80935 20.059 7.89307 18.8266 6.87103 17C4.51719 18.4544 3 21.1005 3 24.0295V25.6177C3 26.9313 4.03819 28 5.31429 28H6.24617L5.70514 24.1017C5.50601 22.6666 6.58786 21.3825 7.99623 21.3825H16.0038C17.4122 21.3825 18.494 22.6666 18.2949 24.1017L17.7538 28H18.6857C19.9618 28 21 26.9313 21 25.6177V24.0295C21 21.1005 19.4828 18.4544 17.129 17Z" fill="#D20000"/>
<path d="M12 19C14.2091 19 16 16.9853 16 14.5C16 12.0147 14.2091 10 12 10C9.79086 10 8 12.0147 8 14.5C8 16.9853 9.79086 19 12 19Z" fill="#D20000"/>
<path d="M16.1921 23H7.80785C7.31633 23 6.93875 23.4528 7.00827 23.9588L7.73909 29.2788C7.79595 29.6926 8.1367 30 8.53867 30H15.4613C15.8633 30 16.2041 29.6926 16.2609 29.2788L16.9917 23.9588C17.0612 23.4528 16.6837 23 16.1921 23ZM13.077 27.34H10.923C10.477 27.34 10.1153 26.9639 10.1153 26.5C10.1153 26.0361 10.477 25.66 10.923 25.66H13.077C13.523 25.66 13.8847 26.0361 13.8847 26.5C13.8847 26.9639 13.523 27.34 13.077 27.34Z" fill="#D20000"/>
<path d="M24.6784 3H18.5773C18.3842 3 18.1982 3.07691 18.057 3.21515L14.2438 6.94848C13.7378 7.44389 14.072 8.33333 14.7642 8.33333H17.8147V14.4667C17.8147 16.9703 19.7495 19 22.1363 19H24.6784C27.0651 19 29 16.9703 29 14.4667V7.53333C29 5.02965 27.0651 3 24.6784 3ZM23.4073 15.8C22.9862 15.8 22.6447 15.4418 22.6447 15C22.6447 14.5582 22.9862 14.2 23.4073 14.2C23.8285 14.2 24.17 14.5582 24.17 15C24.17 15.4418 23.8286 15.8 23.4073 15.8ZM25.3548 10.9027C25.0289 11.2628 24.6176 11.5237 24.17 11.6635V12.2798C24.17 12.7216 23.8285 13.0798 23.4073 13.0798C22.9862 13.0798 22.6447 12.7216 22.6447 12.2798V10.9806C22.6447 10.5388 22.9862 10.1806 23.4073 10.1806C23.7284 10.1806 24.0272 10.0458 24.2487 9.80107C24.47 9.55659 24.5827 9.23573 24.5659 8.89771C24.5346 8.26501 24.0364 7.75941 23.4317 7.74667C22.8426 7.73221 22.3394 8.18395 22.2584 8.79269C22.2509 8.84864 22.2471 8.90608 22.2471 8.96347C22.2471 9.40528 21.9057 9.76347 21.4845 9.76347C21.0633 9.76347 20.7219 9.40528 20.7219 8.96347C20.7219 8.83232 20.7306 8.70043 20.7477 8.57147C20.9354 7.16053 22.1023 6.11717 23.4624 6.14699C24.8628 6.17659 26.0166 7.34832 26.0892 8.81467C26.1278 9.59525 25.867 10.3368 25.3548 10.9027Z" fill="#D20000"/>
</svg>
