<svg width="32" height="33" viewBox="0 0 32 33" fill="none" xmlns="http://www.w3.org/2000/svg">
<path d="M28 12.74H27.815C27.5046 12.7392 27.2014 12.6467 26.9434 12.4741C26.6855 12.3015 26.4842 12.0566 26.365 11.77V11.715C26.241 11.4165 26.2086 11.088 26.2718 10.771C26.335 10.4541 26.491 10.1631 26.72 9.935L26.825 9.83C26.9679 9.6903 27.0814 9.52347 27.1589 9.33929C27.2364 9.15512 27.2763 8.95732 27.2763 8.7575C27.2763 8.55768 27.2364 8.35988 27.1589 8.17571C27.0814 7.99153 26.9679 7.8247 26.825 7.685L24.315 5.225C24.1753 5.08213 24.0085 4.96861 23.8243 4.89111C23.6401 4.81361 23.4423 4.77369 23.2425 4.77369C23.0427 4.77369 22.8449 4.81361 22.6607 4.89111C22.4765 4.96861 22.3097 5.08213 22.17 5.225L22.065 5.33C21.8366 5.55839 21.5456 5.714 21.2288 5.77718C20.912 5.84036 20.5836 5.80829 20.285 5.685C19.9893 5.56106 19.7366 5.35264 19.5588 5.08583C19.3809 4.81902 19.2857 4.50567 19.285 4.185V4C19.285 3.60218 19.127 3.22064 18.8457 2.93934C18.5644 2.65804 18.1828 2.5 17.785 2.5H14.285C13.8872 2.5 13.5056 2.65804 13.2243 2.93934C12.943 3.22064 12.785 3.60218 12.785 4V4.185C12.7852 4.49623 12.6931 4.80053 12.5205 5.05949C12.3478 5.31844 12.1024 5.52045 11.815 5.64L11.72 5.68C11.4325 5.79908 11.1162 5.83033 10.811 5.76982C10.5058 5.70931 10.2253 5.55975 10.005 5.34L9.875 5.21C9.7353 5.06713 9.56847 4.95361 9.38429 4.87611C9.20012 4.79861 9.00232 4.75869 8.8025 4.75869C8.60268 4.75869 8.40488 4.79861 8.22071 4.87611C8.03653 4.95361 7.8697 5.06713 7.73 5.21L5.27 7.67C5.12713 7.8097 5.01361 7.97653 4.93611 8.16071C4.85861 8.34488 4.81869 8.54268 4.81869 8.7425C4.81869 8.94232 4.85861 9.14012 4.93611 9.3243C5.01361 9.50847 5.12713 9.6753 5.27 9.815L5.4 9.945C5.61975 10.1653 5.76931 10.4458 5.82982 10.751C5.89033 11.0562 5.85908 11.3725 5.74 11.66V11.715C5.61606 12.0107 5.40764 12.2634 5.14083 12.4412C4.87402 12.6191 4.56067 12.7143 4.24 12.715H4C3.60218 12.715 3.22064 12.873 2.93934 13.1543C2.65804 13.4356 2.5 13.8172 2.5 14.215V17.715C2.5 18.1128 2.65804 18.4944 2.93934 18.7757C3.22064 19.057 3.60218 19.215 4 19.215H4.185C4.49538 19.2158 4.79859 19.3083 5.05657 19.4809C5.31454 19.6535 5.51578 19.8984 5.635 20.185V20.24C5.75896 20.5385 5.79139 20.867 5.72818 21.184C5.66497 21.5009 5.50897 21.7919 5.28 22.02L5.175 22.125C5.03213 22.2647 4.91861 22.4315 4.84111 22.6157C4.76361 22.7999 4.72369 22.9977 4.72369 23.1975C4.72369 23.3973 4.76361 23.5951 4.84111 23.7793C4.91861 23.9635 5.03213 24.1303 5.175 24.27C5.27409 24.3846 5.40137 24.4713 5.54426 24.5216C5.68715 24.5718 5.84069 24.5839 5.98969 24.5567C6.13869 24.5294 6.27798 24.4637 6.3938 24.3661C6.50961 24.2684 6.59792 24.1422 6.65 24C7.16234 22.69 7.96594 21.5136 9 20.56C9.23073 20.3557 9.39117 20.0839 9.4585 19.7832C9.52582 19.4825 9.49661 19.1682 9.375 18.885C8.91497 17.8433 8.71096 16.7066 8.78 15.57C8.83702 13.6558 9.65212 11.8427 11.046 10.5294C11.7362 9.87919 12.5476 9.37125 13.4341 9.03462C14.3206 8.69799 15.2647 8.53927 16.2125 8.5675C17.1603 8.59573 18.0933 8.81038 18.9582 9.19918C19.823 9.58798 20.6028 10.1433 21.2531 10.8335C21.9033 11.5237 22.4112 12.3351 22.7479 13.2216C23.0845 14.1081 23.2432 15.0522 23.215 16C23.2156 16.9954 23.0078 17.9798 22.605 18.89C22.4869 19.1745 22.4615 19.4891 22.5324 19.7889C22.6033 20.0887 22.7669 20.3585 23 20.56C24.0341 21.5136 24.8377 22.69 25.35 24C25.4022 24.1356 25.4875 24.256 25.5981 24.3501C25.7087 24.4443 25.8412 24.5093 25.9834 24.5391C26.1256 24.5689 26.273 24.5627 26.4121 24.5209C26.5513 24.4792 26.6777 24.4032 26.78 24.3C26.9229 24.1603 27.0364 23.9935 27.1139 23.8093C27.1914 23.6251 27.2313 23.4273 27.2313 23.2275C27.2313 23.0277 27.1914 22.8299 27.1139 22.6457C27.0364 22.4615 26.9229 22.2947 26.78 22.155L26.675 22.05C26.446 21.8219 26.29 21.5309 26.2268 21.214C26.1636 20.897 26.196 20.5685 26.32 20.27C26.4445 19.9746 26.653 19.7224 26.9197 19.5446C27.1864 19.3668 27.4995 19.2713 27.82 19.27H28C28.3978 19.27 28.7794 19.112 29.0607 18.8307C29.342 18.5494 29.5 18.1678 29.5 17.77V14.27C29.504 14.0705 29.4681 13.8722 29.3945 13.6868C29.321 13.5013 29.2111 13.3324 29.0714 13.1899C28.9317 13.0474 28.765 12.9342 28.581 12.857C28.3971 12.7797 28.1995 12.74 28 12.74Z" fill="#D20000"/>
<path d="M16 29C16.5523 29 17 28.5523 17 28C17 27.4477 16.5523 27 16 27C15.4477 27 15 27.4477 15 28C15 28.5523 15.4477 29 16 29Z" fill="#D20000"/>
<path d="M18.43 20.2299C18.1096 20.1338 17.8378 19.9193 17.67 19.6299C18.4986 19.2485 19.1719 18.5954 19.5784 17.7788C19.9849 16.9622 20.1 16.0313 19.9048 15.1403C19.7096 14.2492 19.2157 13.4517 18.5051 12.8799C17.7944 12.3081 16.9096 11.9963 15.9975 11.9963C15.0854 11.9963 14.2006 12.3081 13.4899 12.8799C12.7793 13.4517 12.2854 14.2492 12.0902 15.1403C11.895 16.0313 12.0101 16.9622 12.4166 17.7788C12.8231 18.5954 13.4964 19.2485 14.325 19.6299C14.1572 19.9193 13.8854 20.1338 13.565 20.2299C10.325 21.2099 8 23.9599 8 27.5549C8.01433 28.0757 8.23135 28.5704 8.60488 28.9337C8.97841 29.2969 9.47896 29.5001 10 29.4999H11.43C11.5572 29.5 11.6827 29.471 11.7969 29.4152C11.9112 29.3594 12.0112 29.2783 12.0893 29.178C12.1675 29.0777 12.2216 28.9608 12.2478 28.8364C12.2739 28.7119 12.2712 28.5832 12.24 28.4599L11.855 26.9299C11.8124 26.7603 11.8091 26.5833 11.8452 26.4122C11.8813 26.2412 11.956 26.0806 12.0635 25.9428C12.171 25.8049 12.3085 25.6934 12.4656 25.6166C12.6227 25.5399 12.7952 25.5 12.97 25.4999H19.03C19.2048 25.5 19.3773 25.5399 19.5344 25.6166C19.6915 25.6934 19.829 25.8049 19.9365 25.9428C20.044 26.0806 20.1187 26.2412 20.1548 26.4122C20.1909 26.5833 20.1876 26.7603 20.145 26.9299L19.76 28.4599C19.7288 28.5832 19.7261 28.7119 19.7522 28.8364C19.7784 28.9608 19.8325 29.0777 19.9107 29.178C19.9888 29.2783 20.0888 29.3594 20.2031 29.4152C20.3173 29.471 20.4428 29.5 20.57 29.4999H22C22.521 29.5001 23.0216 29.2969 23.3951 28.9337C23.7687 28.5704 23.9857 28.0757 24 27.5549C24 23.9599 21.675 21.2099 18.43 20.2299Z" fill="#D20000"/>
</svg>
