<svg width="40" height="40" viewBox="0 0 40 40" fill="none" xmlns="http://www.w3.org/2000/svg">
<g clip-path="url(#clip0_8_519)">
<path d="M10.5876 7.67284C10.9399 7.67284 11.227 7.95993 11.227 8.31224H12.5058C12.5058 7.25467 11.6451 6.39404 10.5876 6.39404V5.11523H9.30877V6.39404H7.39056V8.31224C7.39056 9.36981 8.2512 10.2304 9.30877 10.2304H10.5876C10.9399 10.2304 11.227 10.5175 11.227 10.8698V11.5092H9.30877C8.95646 11.5092 8.66937 11.2222 8.66937 10.8698H7.39056C7.39056 11.9274 8.2512 12.788 9.30877 12.788V14.0668H10.5876V12.788H12.5058V10.8698C12.5058 9.81227 11.6451 8.95164 10.5876 8.95164H9.30877C8.95646 8.95164 8.66937 8.66455 8.66937 8.31224V7.67284H10.5876Z" fill="#434343"/>
<path d="M9.94817 16.6248C11.5691 16.6248 13.1516 16.0589 14.4048 15.0321L13.5934 14.0429C12.5691 14.8831 11.2743 15.346 9.94817 15.346C6.77547 15.346 4.19357 12.7641 4.19357 9.59139C4.19357 8.26527 4.65649 6.97049 5.49667 5.94617L4.50751 5.13477C3.48063 6.38799 2.91476 7.97051 2.91476 9.59139C2.91476 13.4694 6.07021 16.6248 9.94817 16.6248Z" fill="#434343"/>
<path d="M9.94817 3.83544C13.1209 3.83544 15.7028 6.41734 15.7028 9.59005C15.7028 10.9162 15.2399 12.211 14.3997 13.2353L15.3888 14.0467C16.4157 12.7934 16.9816 11.2109 16.9816 9.59005C16.9816 5.71208 13.8261 2.55664 9.94817 2.55664C8.32729 2.55664 6.74477 3.12251 5.49155 4.14939L6.30295 5.13854C7.32727 4.29837 8.62205 3.83544 9.94817 3.83544Z" fill="#434343"/>
<path d="M30.409 35.8069C27.2363 35.8069 24.6544 33.2257 24.6544 30.0523C24.6544 28.7262 25.1173 27.4314 25.9575 26.4065L24.9683 25.5957C23.9415 26.8489 23.3756 28.4314 23.3756 30.0523C23.3756 33.9303 26.531 37.0857 30.409 37.0857C32.0305 37.0857 33.613 36.5199 34.8656 35.493L34.0542 34.5038C33.0299 35.344 31.7351 35.8069 30.409 35.8069Z" fill="#434343"/>
<path d="M30.409 23.0176C28.7875 23.0176 27.205 23.5834 25.9524 24.6103L26.7638 25.5995C27.7881 24.7593 29.0829 24.2964 30.409 24.2964C33.5817 24.2964 36.1636 26.8776 36.1636 30.051C36.1636 31.3771 35.7007 32.6719 34.8605 33.6969L35.8497 34.5076C36.8766 33.2544 37.4424 31.6719 37.4424 30.051C37.4424 26.173 34.287 23.0176 30.409 23.0176Z" fill="#434343"/>
<path d="M32.5145 26.4023L30.409 28.5079L28.3034 26.4023L27.3993 27.3065L29.5049 29.412H28.4908V30.6908H29.7696V31.9696H28.4908V33.2484H29.7696V34.5272H31.0484V33.2484H32.3272V31.9696H31.0484V30.6908H32.3272V29.412H31.3131L33.4186 27.3065L32.5145 26.4023Z" fill="#434343"/>
<path d="M40 22.8714V16.7715L37.7026 16.1621C37.2461 13.96 36.3912 11.8967 35.1572 10.0162L36.3509 7.96118L32.0382 3.64842L29.9831 4.84218C28.1033 3.60814 26.0393 2.75326 23.8372 2.29673L23.2285 0H17.1286L16.5193 2.29865C16.4234 2.31911 16.3287 2.34213 16.2335 2.36387C14.548 0.89644 12.3529 0 9.94816 0C4.65968 0 0.357147 4.30253 0.357147 9.59101C0.357147 11.9958 1.25359 14.1909 2.72101 15.8763C2.69927 15.9716 2.67561 16.0662 2.65579 16.1621L0.357147 16.7715V22.8707L2.65451 23.4801C3.11105 25.6809 3.96593 27.7455 5.19997 29.6254L4.00621 31.6804L8.31897 35.9932L10.374 34.7994C12.2545 36.0341 14.3185 36.889 16.5199 37.3442L17.1286 39.6429H23.2279L23.8372 37.3442C23.9331 37.3237 24.0278 37.3001 24.123 37.279C25.8085 38.7464 28.0042 39.6429 30.409 39.6429C35.6975 39.6429 40 35.3403 40 30.0518C40 27.6471 39.1036 25.452 37.6361 23.7665C37.6579 23.6713 37.6809 23.5766 37.7014 23.4807L40 22.8714ZM18.1133 1.2788H22.2445L22.8078 3.40353L23.2061 3.47706C25.5137 3.90226 27.6634 4.79231 29.5957 6.12354L29.9294 6.35309L31.8297 5.24884L34.7512 8.17026L33.6469 10.0706L33.8765 10.4043C35.2077 12.3366 36.0977 14.4863 36.5229 16.7939L36.5965 17.1922L38.7212 17.7562V21.8873L36.5965 22.4506L36.5511 22.6949C35.8356 22.0964 35.0325 21.599 34.1629 21.2281C34.2185 20.7191 34.2454 20.2633 34.2454 19.8214C34.2454 12.0649 27.9351 5.75461 20.1786 5.75461C19.7367 5.75461 19.2809 5.78146 18.7725 5.83645C18.401 4.96687 17.9042 4.16378 17.3051 3.44829L17.5494 3.40289L18.1133 1.2788ZM7.43851 18.8374C8.23968 19.0554 9.07858 19.182 9.94816 19.182C9.95647 19.182 9.96478 19.1807 9.9731 19.1807C9.95711 19.4026 9.94816 19.6143 9.94816 19.8214C9.94816 25.4622 14.5378 30.0518 20.1786 30.0518C20.3851 30.0518 20.5974 30.0429 20.8193 30.0269C20.8193 30.0352 20.818 30.0435 20.818 30.0518C20.818 30.9214 20.9446 31.7603 21.1626 32.5615C20.8141 32.5922 20.49 32.6094 20.1786 32.6094C13.1273 32.6094 7.39056 26.8727 7.39056 19.8214C7.39056 19.51 7.40718 19.1859 7.43851 18.8374ZM20.9196 28.7321C20.6581 28.7564 20.4094 28.773 20.1786 28.773C15.2424 28.773 11.227 24.7576 11.227 19.8214C11.227 19.59 11.2436 19.3419 11.2679 19.0804C12.2276 18.9474 13.1401 18.6737 13.9879 18.2779C13.8619 18.7811 13.7846 19.2971 13.7846 19.8214C13.7846 23.3471 16.6529 26.2154 20.1786 26.2154C20.7029 26.2154 21.2189 26.1381 21.7227 26.0121C21.3263 26.8593 21.0526 27.7724 20.9196 28.7321ZM22.8462 24.1745C22.0392 24.67 21.1204 24.9366 20.1786 24.9366C17.3582 24.9366 15.0634 22.6418 15.0634 19.8214C15.0634 18.879 15.33 17.9601 15.8255 17.1538C16.4547 16.6634 17.0206 16.0982 17.5104 15.469C18.3173 14.9729 19.2361 14.7062 20.1786 14.7062C22.999 14.7062 25.2938 17.001 25.2938 19.8214C25.2938 20.7639 25.0272 21.6821 24.5316 22.489C23.9024 22.9794 23.3366 23.5453 22.8462 24.1745ZM20.1786 13.4274C19.6543 13.4274 19.1383 13.5048 18.6344 13.6307C19.0302 12.7829 19.3039 11.8705 19.4369 10.9107C19.699 10.8864 19.9471 10.8698 20.1786 10.8698C25.1147 10.8698 29.1302 14.8853 29.1302 19.8214C29.1302 20.0529 29.1136 20.301 29.0893 20.5625C28.1295 20.6955 27.2171 20.9692 26.3693 21.3649C26.4952 20.8617 26.5726 20.3457 26.5726 19.8214C26.5726 16.2958 23.7042 13.4274 20.1786 13.4274ZM20.1786 9.59101C19.9714 9.59101 19.7598 9.59997 19.5379 9.61595C19.5379 9.60764 19.5392 9.59933 19.5392 9.59101C19.5392 8.72143 19.4126 7.88253 19.1945 7.08136C19.543 7.05003 19.8672 7.03341 20.1786 7.03341C27.2299 7.03341 32.9666 12.7701 32.9666 19.8214C32.9666 20.1328 32.95 20.457 32.9186 20.8055C32.1175 20.5874 31.2786 20.4608 30.409 20.4608C30.4007 20.4608 30.3924 20.4621 30.3841 20.4621C30.4 20.2402 30.409 20.0286 30.409 19.8214C30.409 14.1806 25.8194 9.59101 20.1786 9.59101ZM9.94816 1.2788C14.5314 1.2788 18.2604 5.00779 18.2604 9.59101C18.2604 14.1742 14.5314 17.9032 9.94816 17.9032C5.36493 17.9032 1.63595 14.1742 1.63595 9.59101C1.63595 5.00779 5.36493 1.2788 9.94816 1.2788ZM22.2438 38.3641H18.1133L17.55 36.2387L17.151 36.1658C14.8447 35.7419 12.6944 34.8512 10.7615 33.52L10.4277 33.2904L8.52741 34.3947L5.60599 31.4732L6.71023 29.5723L6.48069 29.2392C5.14946 27.3069 4.25941 25.1572 3.83421 22.8503L3.76068 22.4519L1.63595 21.8867V17.7562L3.76068 17.1929L3.80608 16.9486C4.52157 17.5471 5.32465 18.0445 6.19424 18.416C6.13861 18.9237 6.11176 19.3796 6.11176 19.8214C6.11176 27.578 12.422 33.8882 20.1786 33.8882C20.6204 33.8882 21.0763 33.8614 21.5846 33.8064C21.9561 34.676 22.4529 35.4784 23.0514 36.1939L22.8078 36.2387L22.2438 38.3641ZM30.409 38.3641C25.8258 38.3641 22.0968 34.6351 22.0968 30.0518C22.0968 25.4686 25.8258 21.7396 30.409 21.7396C34.9922 21.7396 38.7212 25.4686 38.7212 30.0518C38.7212 34.6351 34.9922 38.3641 30.409 38.3641Z" fill="#434343"/>
</g>
<defs>
<clipPath id="clip0_8_519">
<rect width="40" height="40" fill="white"/>
</clipPath>
</defs>
</svg>
