<svg width="64" height="64" viewBox="0 0 64 64" fill="none" xmlns="http://www.w3.org/2000/svg">
<g clip-path="url(#clip0_1_4665)">
<path d="M60.6478 25.6151C60.6868 25.5336 60.7166 25.4482 60.7371 25.3598C61.4266 22.3852 60.0247 20.3876 58.8172 19.4413C58.5433 17.2104 56.4402 15.7831 54.7191 15.0942C54.5438 12.9926 53.7459 11.2861 52.3402 10.0122C50.0394 7.9277 46.743 7.64645 45.1312 7.64645C45.1146 7.64645 45.0985 7.64645 45.0819 7.64645C43.5116 4.96237 39.9183 4.83835 37.8231 5.22751C36.5941 4.80759 35.3549 4.4736 34.1356 4.23288C33.4564 4.09909 32.7958 4.5405 32.6615 5.22067C32.5272 5.90036 32.9696 6.56051 33.6498 6.69479C34.8602 6.93405 36.0956 7.27535 37.3197 7.70943C37.5467 7.79049 37.7919 7.80367 38.0262 7.7485C38.0682 7.73873 42.2093 6.79733 43.1175 9.35347C43.3104 9.89497 43.8485 10.2358 44.4207 10.1821C44.4603 10.1782 48.4124 9.83101 50.6624 11.8789C51.4539 12.5996 51.9427 13.5292 52.1424 14.6996C50.4495 14.7807 47.8089 15.3754 46.4344 18.0971C46.1219 18.7157 46.3695 19.4701 46.9881 19.7831C47.1698 19.8744 47.3631 19.9179 47.5531 19.9179C48.0116 19.9179 48.4535 19.6659 48.6742 19.2289C49.8314 16.9389 52.7069 17.1689 53.2288 17.2314C53.6927 17.3837 56.4442 18.3647 56.3333 20.0463C56.3006 20.5444 56.5662 21.0146 57.0101 21.2436C57.0145 21.2455 57.4598 21.496 57.846 22.0219C58.3533 22.7123 58.5198 23.5605 58.3431 24.5458L58.2586 24.6581C56.3109 24.872 53.3817 26.0976 52.9818 29.7206C52.9061 30.4096 53.4027 31.0297 54.0916 31.1059C54.1385 31.1107 54.1849 31.1132 54.2308 31.1132C54.8621 31.1132 55.4056 30.6381 55.4764 29.996C55.7298 27.7001 57.7015 27.2436 58.5516 27.1537C64.0501 31.1869 60.1688 40.5926 59.9119 41.1957C58.5506 43.7982 56.8421 45.1297 54.7005 45.2513C53.7825 44.4842 51.3792 42.7787 47.179 41.7723C46.5047 41.6107 45.8275 42.0262 45.6659 42.7001C45.5047 43.3744 45.9198 44.0516 46.5941 44.2127C50.1829 45.0726 52.2318 46.4852 52.9876 47.0926C52.9779 47.4369 52.9324 47.7772 52.8489 48.1078C51.9564 51.6536 47.1571 53.5135 42.1502 52.2528C41.3216 52.0438 40.5189 51.7562 39.7645 51.3973C39.3934 51.2205 38.9593 51.2371 38.6024 51.4412C38.246 51.6449 38.0116 52.0111 37.9755 52.4202C37.8319 54.0448 37.9017 55.6097 38.182 57.0892L34.8871 57.637C34.7465 57.138 34.6053 56.5545 34.4525 55.9202C33.7162 52.8709 32.6527 48.472 29.5258 44.8626C32.1288 44.2289 34.6332 43.8104 36.9935 43.6166C37.6844 43.5599 38.1986 42.954 38.1415 42.2635C38.0848 41.5726 37.4784 41.0594 36.7884 41.1156C33.6688 41.3714 30.3241 41.9955 26.8456 42.9696C23.6566 43.4012 21.4233 43.2284 21.1733 43.2064C15.7338 42.389 14.2148 39.1024 14.5683 36.5326C14.6249 36.121 14.4741 35.7079 14.1655 35.4296C13.8569 35.1512 13.4311 35.0438 13.0273 35.1425L12.1176 35.3651C10.5312 35.2865 6.56588 34.6722 4.78121 32.5941C4.00582 31.6908 3.70895 30.6 3.87448 29.2592C3.93795 28.7416 3.67526 28.2387 3.21432 27.996C3.20895 27.9931 2.67477 27.6713 2.54343 27.1044C2.38718 26.4291 2.8403 25.6205 3.24801 25.0614C3.4946 24.7231 3.55612 24.2836 3.41208 23.8905C3.40231 23.8642 2.47702 21.1947 3.53366 18.9789C4.12155 17.746 5.2485 16.8368 6.88375 16.2773C7.35738 16.1152 7.68843 15.6957 7.72749 15.1967C7.72896 15.1806 7.88863 13.5893 9.0478 12.725C9.84858 12.1284 11.0039 11.9755 12.4809 12.2709C12.8159 12.3373 13.163 12.2656 13.4433 12.0707C13.7236 11.8759 13.9125 11.5756 13.9662 11.2382C13.9706 11.2109 14.5326 8.59957 19.4286 8.5068C20.1713 9.52095 21.81 12.1855 20.5942 14.5727C20.2797 15.1904 20.5258 15.9462 21.143 16.2607C21.3256 16.3535 21.5199 16.3974 21.7113 16.3974C22.1684 16.3974 22.6093 16.1469 22.831 15.7119C23.2831 14.8237 23.4911 13.933 23.5341 13.0732C24.2113 12.7851 25.266 12.4755 26.1078 12.726C26.6552 12.8881 27.0761 13.2856 27.3949 13.9399C27.6122 14.3862 28.059 14.6454 28.5243 14.6454C28.7084 14.6454 28.8959 14.6044 29.0731 14.518C29.6962 14.2148 29.955 13.4633 29.6513 12.8403C29.0248 11.5551 28.0468 10.6835 26.8222 10.3198C25.518 9.93257 24.1908 10.1796 23.2089 10.5107C22.8813 9.39058 22.3661 8.41744 21.913 7.70113C22.5038 7.44381 23.3017 7.14401 24.2841 6.88571C24.9545 6.70993 25.3554 6.0234 25.1791 5.35348C25.0028 4.68259 24.3163 4.28269 23.6464 4.45847C21.663 4.97946 20.3041 5.65719 19.7016 5.99362C14.6191 5.9946 12.6542 8.2148 11.9145 9.6523C10.163 9.48677 8.68794 9.84957 7.51802 10.7348C6.15426 11.7666 5.59566 13.2514 5.37106 14.1684C3.44284 14.976 2.06442 16.2285 1.26804 17.8984C0.112281 20.3227 0.557592 22.9311 0.862767 24.1122C0.0951911 25.351 -0.162132 26.5458 0.098609 27.6708C0.319312 28.6249 0.86472 29.2885 1.32419 29.6996C1.26609 31.4379 1.78659 32.9589 2.87692 34.2289C5.58004 37.3759 10.9677 37.8158 12.0317 37.8724C12.3056 41.3719 14.9697 44.8251 20.8388 45.6937C20.8573 45.6966 20.8764 45.6991 20.8954 45.701C20.9477 45.7064 21.5976 45.7699 22.6957 45.7699C23.6928 45.7699 25.0609 45.7171 26.6864 45.5199C30.1483 48.7923 31.2221 53.2332 32.0126 56.5091C32.3007 57.7015 32.5492 58.7317 32.8734 59.5257C33.0682 60.0032 33.5316 60.306 34.0345 60.306C34.1029 60.306 34.1718 60.3006 34.2411 60.2889L39.9193 59.3441C40.2728 59.285 40.5843 59.0779 40.7752 58.7747C40.9662 58.4715 41.0184 58.1009 40.9183 57.7567C40.6087 56.6888 40.4408 55.5516 40.4159 54.3592C40.784 54.4823 41.1586 54.5911 41.537 54.6863C44.5472 55.4442 47.6121 55.2796 50.1678 54.2225C52.8524 53.1121 54.6688 51.158 55.2825 48.7205C55.367 48.3836 55.4261 48.0409 55.4612 47.6947C57.6033 47.3968 60.1819 46.1219 62.159 42.3138C62.1707 42.2914 62.1814 42.2689 62.1917 42.246C62.2459 42.1244 63.5247 39.2211 63.8987 35.6805C64.3606 31.3051 63.2395 27.8554 60.6478 25.6151Z" fill="#434343"/>
<path d="M29.1899 21.9276C29.203 22.0003 29.5292 23.7298 30.7289 25.4271C31.015 25.8319 31.3656 26.2547 31.7895 26.66C31.5639 27.949 29.5922 28.6546 29.5458 28.6707C28.8915 28.8939 28.5409 29.6043 28.7616 30.2596C28.9384 30.7835 29.4267 31.1141 29.9506 31.1141C30.0839 31.1141 30.2192 31.0926 30.352 31.0477C31.5121 30.6566 33.1977 29.6824 33.9433 28.117C34.9188 28.5574 36.0951 28.8426 37.5077 28.8426C37.5976 28.8426 37.6889 28.8411 37.7807 28.8392C38.4735 28.8211 39.0209 28.2454 39.0028 27.5526C38.9857 26.8704 38.4276 26.3294 37.7489 26.3294C37.7382 26.3294 37.7274 26.3299 37.7167 26.3299C32.6815 26.4564 31.7001 21.6912 31.6576 21.4725C31.5312 20.7933 30.8788 20.3431 30.1986 20.4681C29.517 20.5921 29.0653 21.2459 29.1899 21.9276Z" fill="#434343"/>
<path d="M44.4891 32.9463C46.6678 29.1392 45.8075 26.1953 44.7025 24.396C43.535 22.4961 41.8529 21.4951 41.7821 21.4536C41.1859 21.104 40.4227 21.3032 40.0702 21.897C39.7176 22.4912 39.9144 23.2598 40.5067 23.6152C40.5194 23.6226 41.7787 24.3882 42.6068 25.7808C43.6522 27.5386 43.5521 29.5298 42.3104 31.6997C41.9662 32.3013 42.1751 33.0679 42.7767 33.4121C42.973 33.5249 43.1873 33.5781 43.3983 33.5781C43.8343 33.5781 44.2572 33.3515 44.4891 32.9463Z" fill="#434343"/>
<path d="M57.7894 35.8798C58.3533 35.477 58.4842 34.6933 58.0814 34.1293C57.6785 33.5654 56.8948 33.4345 56.3309 33.8373C55.1073 34.7114 53.994 35.04 53.0218 34.8134C51.557 34.4731 50.7249 32.9692 50.7054 32.934C50.3831 32.3242 49.6288 32.0888 49.016 32.4081C48.4012 32.7289 48.1629 33.4867 48.4837 34.101C48.5331 34.1952 49.6205 36.2358 51.7918 37.0561C51.4032 38.5912 51.1556 41.3002 53.4242 43.1972C53.659 43.3935 53.9442 43.4896 54.2284 43.4896C54.5872 43.4896 54.9432 43.3363 55.1917 43.0399C55.6361 42.5082 55.5657 41.7167 55.034 41.2719C53.6493 40.1137 54.0384 38.2133 54.3114 37.3529C55.4447 37.2143 56.6087 36.7231 57.7894 35.8798Z" fill="#434343"/>
<path d="M20.8452 27.8195C20.7582 27.132 20.1303 26.6462 19.4423 26.7326C18.7548 26.8195 18.268 27.4479 18.3554 28.1354C18.5732 29.8527 17.226 31.1027 16.4282 31.6823C14.4199 30.6882 12.1709 31.0671 12.0591 31.0866C11.3789 31.2067 10.9262 31.8542 11.0434 32.5348C11.1606 33.2155 11.8091 33.673 12.4902 33.5593C12.5117 33.5553 14.6298 33.216 15.8974 34.3146C16.621 34.9421 16.9711 35.9914 16.9375 37.4333C16.9213 38.1261 17.4702 38.7008 18.163 38.717C18.1728 38.7174 18.1826 38.7174 18.1928 38.7174C18.872 38.7174 19.4306 38.175 19.4467 37.4919C19.4863 35.8044 19.1269 34.4157 18.3774 33.3454C19.6074 32.3244 21.1811 30.4689 20.8452 27.8195Z" fill="#434343"/>
<path d="M9.04444 21.2409C8.90821 21.5671 8.70118 21.8591 8.43995 22.1247C7.75929 22.8186 6.9048 23.0764 6.87257 23.0861C6.20851 23.2702 5.81642 23.9558 5.99611 24.6223C6.14699 25.1818 6.65382 25.5505 7.20655 25.5505C7.31495 25.5505 7.42481 25.5363 7.53468 25.5066C7.61378 25.4851 9.18995 25.0451 10.4072 23.6916C11.2451 24.3137 12.2295 24.6384 13.3081 24.6384C13.6084 24.6384 13.9155 24.6135 14.229 24.5627C15.6509 24.3337 16.7158 23.6633 16.8325 23.5876C17.414 23.2107 17.5801 22.4338 17.2031 21.8523C16.8262 21.2707 16.0493 21.1047 15.4673 21.4817C15.4604 21.4861 14.73 21.9397 13.8301 22.0852C12.9258 22.2312 12.2119 22.0251 11.6235 21.4411C11.9077 20.3596 11.8735 19.1545 11.5166 17.8406C11.3354 17.1716 10.6465 16.7766 9.97705 16.9582C9.30811 17.1399 8.91309 17.8288 9.09473 18.4978C9.38282 19.5603 9.375 20.4489 9.06788 21.1863C9.06006 21.2043 9.05225 21.2224 9.04444 21.2409Z" fill="#434343"/>
<path d="M38.4115 10.5672C36.2919 9.30986 33.8559 9.95927 33.7533 9.98759C33.0854 10.1717 32.6928 10.8626 32.8769 11.5306C33.0605 12.1985 33.7523 12.5906 34.4198 12.4075C34.4345 12.4031 35.9384 12.0179 37.1308 12.7254C37.8402 13.1463 38.33 13.9143 38.5873 15.0076C38.7235 15.5857 39.2387 15.9754 39.808 15.9754C39.9032 15.9754 39.9994 15.9641 40.0961 15.9417C40.7709 15.783 41.1893 15.1072 41.0302 14.4329C40.6107 12.6502 39.7299 11.3494 38.4115 10.5672Z" fill="#434343"/>
<path d="M33.8656 34.2276C32.9716 35.7637 31.6796 36.5865 30.0263 36.6729C28.6981 36.7418 27.6034 36.3135 27.5766 36.3023C26.9369 36.0406 26.2064 36.3453 25.9423 36.984C25.6771 37.6246 25.9813 38.3585 26.6215 38.6231C26.7689 38.6841 28.0424 39.1905 29.7279 39.1905C29.8314 39.1905 29.9369 39.1885 30.0438 39.1841C31.8353 39.1163 34.3295 38.42 36.035 35.4898C36.3837 34.8912 36.1805 34.1226 35.5814 33.774C34.9828 33.4254 34.2142 33.6285 33.8656 34.2276Z" fill="#434343"/>
<path d="M42.952 41.5861C42.6556 41.1442 42.1009 40.9323 41.5834 41.0719C41.0829 41.2062 40.7123 41.6451 40.6595 42.1603C40.6063 42.6808 40.8998 43.1949 41.3719 43.4171C41.8324 43.6334 42.3939 43.5489 42.7655 43.1993C43.2098 42.7819 43.2899 42.0909 42.952 41.5861Z" fill="#434343"/>
<path d="M27.7734 5.48182C27.9726 5.96424 28.4711 6.28065 28.9921 6.25575C29.5024 6.23084 29.9555 5.88856 30.1195 5.40516C30.286 4.91639 30.1274 4.36073 29.7284 4.03261C29.307 3.68593 28.6899 3.65468 28.2362 3.95839C27.7455 4.287 27.5473 4.93446 27.7734 5.48182Z" fill="#434343"/>
</g>
<defs>
<clipPath id="clip0_1_4665">
<rect width="64" height="64" fill="white"/>
</clipPath>
</defs>
</svg>
