<svg width="64" height="64" viewBox="0 0 64 64" fill="none" xmlns="http://www.w3.org/2000/svg">
<g clip-path="url(#clip0_1_4676)">
<path d="M30.9673 38.1935H33.0318C33.6016 38.1935 34.064 38.657 34.064 39.2257H36.1285C36.1285 37.5184 34.7391 36.129 33.0318 36.129V34.0645H30.9673V36.129C29.2599 36.129 27.8705 37.5184 27.8705 39.2257C27.8705 40.9331 29.2599 42.3225 30.9673 42.3225H33.0318C33.6016 42.3225 34.064 42.786 34.064 43.3548C34.064 43.9235 33.6016 44.387 33.0318 44.387H30.9673C30.3975 44.387 29.935 43.9235 29.935 43.3548H27.8705C27.8705 45.0621 29.2599 46.4515 30.9673 46.4515V48.5161H33.0318V46.4515C34.7391 46.4515 36.1285 45.0621 36.1285 43.3548C36.1285 41.6474 34.7391 40.258 33.0318 40.258H30.9673C30.3975 40.258 29.935 39.7945 29.935 39.2257C29.935 38.657 30.3985 38.1935 30.9673 38.1935Z" fill="#434343"/>
<path d="M11.8797 43.6992L10.3417 45.0763C11.1252 45.9506 12.2472 46.4523 13.4188 46.4523C14.5925 46.4523 15.7135 45.9506 16.495 45.0763L14.9569 43.7003C14.1755 44.5735 12.6643 44.5746 11.8797 43.6992Z" fill="#434343"/>
<path d="M53.6573 45.0752L52.1192 43.6992C51.3368 44.5735 49.8235 44.5735 49.0421 43.6992L47.504 45.0752C48.2854 45.9495 49.4064 46.4512 50.5801 46.4512C51.7538 46.4512 52.8748 45.9495 53.6573 45.0752Z" fill="#434343"/>
<path d="M35.0777 18.2373L33.5396 16.8613C32.7572 17.7357 31.2439 17.7357 30.4624 16.8613L28.9244 18.2373C29.7058 19.1117 30.8268 19.6133 31.9995 19.6133C33.1742 19.6133 34.2952 19.1117 35.0777 18.2373Z" fill="#434343"/>
<path d="M62.1674 50.6054L60.3238 49.8023C59.5765 49.4782 58.7496 49.4627 57.9888 49.7621C57.2312 50.0614 56.6345 50.6374 56.3125 51.3848L55.978 52.1569L54.7083 51.839L54.7063 50.1874L54.8456 50.1192C57.3096 48.8867 58.8394 46.4103 58.8394 43.6552V43.3548H59.8706C61.578 43.3548 62.9674 41.9654 62.9674 40.2581C62.9674 39.4013 62.6175 38.625 62.0528 38.0635C62.6433 36.9775 62.9685 35.7512 62.9685 34.5115C62.9685 31.9329 61.6626 29.5794 59.4774 28.2126L56.042 26.0655C54.6877 25.2212 53.129 24.7742 51.5341 24.7742H50.0353C47.082 24.7742 44.4095 26.2782 42.8611 28.737C41.7256 27.1401 40.0472 25.9799 38.1323 25.5019L36.1297 25.0013V23.3486L36.265 23.2815C38.729 22.049 40.2598 19.5726 40.2598 16.8175L40.2588 16.5161H41.29C42.9974 16.5161 44.3868 15.1267 44.3868 13.4194C44.3868 12.5626 44.0358 11.7853 43.4712 11.2248C44.0616 10.1388 44.3868 8.91252 44.3868 7.67381C44.3868 3.44155 40.9442 0 36.714 0H28.5499C27.1708 0 25.8753 0.536774 24.9008 1.51123L24.3279 2.08413C21.6895 2.31123 19.6136 4.53058 19.6136 7.22581C19.6136 8.61419 19.9398 9.97368 20.5344 11.2196C19.9666 11.7812 19.6136 12.5595 19.6136 13.4194C19.6136 15.1267 21.003 16.5161 22.7104 16.5161H23.7426V16.8175C23.7426 19.5726 25.2725 22.049 27.7365 23.2805L27.8706 23.3476V25.0003L25.8691 25.5009C24.6861 25.7961 23.5981 26.3525 22.6619 27.1154C21.0216 25.664 18.8735 24.7742 16.5158 24.7742H10.3223C5.19916 24.7742 1.03194 28.9425 1.03194 34.0645C1.03194 35.4539 1.3571 36.8134 1.95168 38.0583C1.38497 38.6199 1.0309 39.3982 1.0309 40.2581C1.0309 41.9654 2.42032 43.3548 4.12768 43.3548H5.16097V43.6563C5.16097 46.4103 6.69078 48.8877 9.15478 50.1203L9.28897 50.1874L9.29 51.84L8.02239 52.1569L7.6869 51.3827C7.36381 50.6364 6.7682 50.0604 6.01052 49.7621C5.25387 49.4637 4.42807 49.4782 3.67968 49.8023L1.83607 50.6054C0.294905 51.2764 -0.416321 53.0777 0.252582 54.6199L0.643808 55.5231C0.863679 56.0299 1.26729 56.4212 1.78239 56.6235C1.82678 56.641 1.8722 56.6483 1.91658 56.6627C1.34781 57.7992 1.03194 59.0596 1.03297 60.3541V64H25.8072V60.352C25.8072 56.5554 23.2358 53.2604 19.5517 52.3406L17.547 51.84L17.545 50.1884L17.6843 50.1203C20.1483 48.8877 21.6781 46.4114 21.6781 43.6563V43.3559H22.7094C24.4167 43.3559 25.8061 41.9664 25.8061 40.2591C25.8061 39.4003 25.4531 38.6219 24.8864 38.0604C25.481 36.8144 25.8072 35.455 25.8072 34.0655C25.8072 32.0413 25.1486 30.1719 24.0451 28.6441C24.6665 28.1559 25.3798 27.8018 26.1426 27.5788L28.4993 33.8643L31.9997 30.3639L35.5001 33.8643L37.8598 27.5747C39.0428 27.9195 40.0936 28.608 40.8792 29.5443C39.2823 30.4227 38.1943 32.1166 38.1943 34.0645C38.1943 35.4539 38.5194 36.8134 39.114 38.0583C38.5463 38.6199 38.1932 39.3982 38.1932 40.2581C38.1932 41.9654 39.5826 43.3548 41.29 43.3548H42.3233V43.6563C42.3233 46.4103 43.8531 48.8867 46.3171 50.1192L46.4513 50.1863L46.4523 51.839L44.4497 52.3396C40.7666 53.2614 38.1932 56.5554 38.1932 60.352V64H62.9685V60.352C62.9685 59.0586 62.6526 57.7982 62.0838 56.6617C62.1292 56.6472 62.1746 56.64 62.219 56.6225C62.7331 56.4201 63.1377 56.0289 63.3576 55.5221L63.7499 54.6168C64.4167 53.0756 63.7065 51.2764 62.1674 50.6054ZM41.29 14.4516H40.2588V12.3871H41.291C41.8608 12.3871 42.3233 12.8506 42.3233 13.4194C42.3233 13.9881 41.8598 14.4516 41.29 14.4516ZM21.6771 7.22581C21.6771 5.51845 23.0665 4.12903 24.7739 4.12903H25.2012L26.3594 2.97084C26.9365 2.39484 27.7344 2.06452 28.5499 2.06452H36.714C39.8066 2.06452 42.3233 4.58116 42.3233 7.67381C42.3233 8.61419 42.058 9.54013 41.5894 10.3535C41.4892 10.3432 41.3922 10.3226 41.29 10.3226H40.2577H39.2255H35.5847C33.7669 10.3226 32.1328 9.31303 31.3205 7.68826C30.8611 6.76645 29.9341 6.19355 28.9029 6.19355C27.8717 6.19355 26.9457 6.76645 26.4864 7.68723L26.1953 8.26942C25.0371 8.37574 24.0967 9.2191 23.8273 10.3226H22.7094C22.6051 10.3226 22.506 10.3432 22.4038 10.3535C21.9352 9.37806 21.6771 8.31381 21.6771 7.22581ZM22.7094 14.4516C22.1395 14.4516 21.6771 13.9881 21.6771 13.4194C21.6771 12.8506 22.1395 12.3871 22.7094 12.3871H23.7416V14.4516H22.7094ZM25.8072 16.8175L25.8061 10.9605C25.8061 10.6085 26.0921 10.3226 26.4441 10.3226H27.4753L28.3331 8.61006C28.5509 8.17445 29.2549 8.17548 29.4727 8.6111C30.6392 10.9399 32.9814 12.3871 35.5847 12.3871H38.1932L38.1943 16.8165C38.1943 18.785 37.1001 20.5543 35.3401 21.4338L35.2048 21.5009C34.5008 21.8529 34.0642 22.56 34.0642 23.3476V25.3791L31.9997 27.4436L29.9352 25.3791V23.3476C29.9352 22.56 29.4975 21.8529 28.7945 21.5009L28.6603 21.4338C26.9003 20.5543 25.8072 18.785 25.8072 16.8175ZM4.12768 41.2903C3.55787 41.2903 3.09542 40.8268 3.09542 40.2581C3.09542 39.6893 3.55787 39.2258 4.12768 39.2258H5.16097V41.2903H4.12768ZM2.66084 52.4975L4.50445 51.6945C4.62936 51.6397 4.76149 51.6129 4.89465 51.6129C5.01542 51.6129 5.13723 51.6356 5.25387 51.681C5.49749 51.777 5.68949 51.9618 5.79271 52.2023L6.18703 53.1117L2.53903 54.7004L2.14781 53.7972C1.93 53.2986 2.16019 52.7143 2.66084 52.4975ZM23.7416 60.352V61.9355H3.09645V60.351C3.09542 58.6591 3.79839 57.0364 5.02265 55.871L7.01078 55.0059C7.35761 54.8552 7.63426 54.6147 7.84278 54.3288L9.50987 53.9117C10.0487 55.5675 11.5868 56.7742 13.419 56.7742C15.2503 56.7742 16.7894 55.5675 17.3272 53.9128L19.051 54.3432C21.8134 55.0328 23.7416 57.504 23.7416 60.352ZM16.7635 48.2705L16.6242 48.3396C15.9202 48.6916 15.4835 49.3987 15.4835 50.1863V52.6452C15.4835 53.7837 14.5576 54.7097 13.419 54.7097C12.2805 54.7097 11.3555 53.7837 11.3555 52.6452L11.3545 50.1863C11.3545 49.3987 10.9168 48.6916 10.2139 48.3396L10.0797 48.2725C8.31968 47.392 7.22652 45.6237 7.22652 43.6552V38.9306C8.72019 38.3814 10.1168 37.5618 11.3277 36.5275L11.9088 37.1086C13.2745 38.4733 15.0892 39.2248 17.0185 39.2248H19.6136L19.6146 43.6542C19.6126 45.6227 18.5205 47.392 16.7635 48.2705ZM22.7083 41.2903H21.6771V39.2258H22.7094C23.2792 39.2258 23.7416 39.6893 23.7416 40.2581C23.7416 40.8268 23.2781 41.2903 22.7083 41.2903ZM22.7083 37.1613H21.6761H21.5749C21.3757 36.1765 20.8926 35.2712 20.1659 34.5435C19.1904 33.569 17.8949 33.0323 16.5158 33.0323V35.0968C17.3437 35.0968 18.121 35.4188 18.7052 36.0041C19.0366 36.3355 19.273 36.7319 19.4247 37.1613H17.0175C15.6394 37.1613 14.3429 36.6245 13.3674 35.6501L11.3555 33.6372L10.6257 34.368C9.38807 35.6057 7.85516 36.5523 6.19426 37.1066L6.026 37.1613H4.12768C4.02342 37.1613 3.92432 37.1819 3.82316 37.1923C3.35452 36.2178 3.09645 35.1535 3.09645 34.0645C3.09645 30.08 6.33878 26.8387 10.3223 26.8387H16.5158C20.4993 26.8387 23.7416 30.08 23.7416 34.0645C23.7416 35.1535 23.4835 36.2178 23.0149 37.1923C22.9127 37.1819 22.8136 37.1613 22.7083 37.1613ZM29.3075 30.1368L28.1535 27.0586L28.587 26.9502L30.5401 28.9032L29.3075 30.1368ZM34.6939 30.1368L33.4593 28.9032L35.4134 26.9492L35.8479 27.0575L34.6939 30.1368ZM57.8134 53.1117L58.2066 52.2065C58.3109 51.9659 58.5029 51.7791 58.7465 51.6831C58.9912 51.5861 59.2595 51.5912 59.499 51.6965L61.3426 52.4996C61.8402 52.7164 62.0694 53.2976 61.8536 53.7961L61.4624 54.7014L57.8123 53.1138L57.8134 53.1117ZM53.994 53.7889L54.4276 53.8973L53.2735 56.9755L52.0399 55.7419L53.994 53.7889ZM59.8696 41.2903H58.8384V39.2258H59.8706C60.4405 39.2258 60.9029 39.6893 60.9029 40.2581C60.9029 40.8268 60.4394 41.2903 59.8696 41.2903ZM40.2577 34.0645C40.2577 32.3572 41.6472 30.9677 43.3545 30.9677H43.9925L44.2774 30.3969C45.3746 28.2023 47.5806 26.8387 50.0343 26.8387H51.5331C52.7408 26.8387 53.9207 27.1773 54.9457 27.8173L58.3811 29.9644C59.9594 30.9502 60.9019 32.6503 60.9019 34.5115C60.9019 35.4519 60.6366 36.3788 60.1679 37.1912C60.0699 37.1819 59.9728 37.1613 59.8696 37.1613H58.8374H57.8051H54.1643C52.3465 37.1613 50.7135 36.1517 49.9011 34.5259C49.4397 33.6052 48.5137 33.0323 47.4836 33.0323C46.4523 33.0323 45.5264 33.6052 45.066 34.5259L44.7759 35.1071C43.6177 35.2134 42.6774 36.0568 42.4079 37.1603H41.289C41.1847 37.1603 41.0856 37.1809 40.9834 37.1912C40.5158 36.2178 40.2577 35.1535 40.2577 34.0645ZM41.289 41.2903C40.7192 41.2903 40.2567 40.8268 40.2567 40.2581C40.2567 39.6893 40.7192 39.2258 41.289 39.2258H42.3223V41.2903H41.289ZM44.3868 43.6563V37.7992C44.3868 37.4472 44.6727 37.1613 45.0237 37.1613H46.057L46.9127 35.4488C47.1295 35.0152 47.8355 35.0132 48.0534 35.4498C49.2188 37.7786 51.5599 39.2258 54.1643 39.2258H56.7728L56.7739 43.6552C56.7739 45.6227 55.6807 47.393 53.9238 48.2715L53.7845 48.3406C53.0805 48.6926 52.6438 49.3997 52.6438 50.1874V52.2199L50.5803 54.2834L48.5158 52.2188L48.5148 50.1884C48.5148 49.4008 48.0771 48.6937 47.3741 48.3417L47.2399 48.2746C45.4799 47.393 44.3868 45.6237 44.3868 43.6563ZM47.1677 53.7879L49.1207 55.7419L47.8872 56.9755L46.7331 53.8973L47.1677 53.7879ZM60.9029 61.9355H40.2567V60.352C40.2567 57.5855 42.0859 55.1876 44.7233 54.4196L47.0799 60.7019L50.5803 57.2015L54.0807 60.7019L56.3734 54.5848C56.5478 54.7561 56.7512 54.9027 56.9876 55.0049L58.9767 55.871C60.1989 57.0384 60.9019 58.6601 60.9019 60.352L60.9029 61.9355Z" fill="#434343"/>
<path d="M52.6447 9.29013V19.1854L51.31 17.8506L49.8503 19.3103L53.6769 23.1368L57.5035 19.3103L56.0439 17.8506L54.7092 19.1854V9.29013C54.7092 7.58278 53.3198 6.19336 51.6124 6.19336H46.4511V8.25788H51.6124C52.1822 8.25788 52.6447 8.72136 52.6447 9.29013Z" fill="#434343"/>
<path d="M9.2898 9.28953C9.2898 8.72076 9.75225 8.25728 10.3221 8.25728H14.0237L12.689 9.59199L14.1486 11.0516L17.9752 7.22502L14.1486 3.39844L12.689 4.85805L14.0237 6.19276H10.3221C8.6147 6.19276 7.22528 7.58218 7.22528 9.28953V22.7089H9.2898V9.28953Z" fill="#434343"/>
</g>
<defs>
<clipPath id="clip0_1_4676">
<rect width="64" height="64" fill="white"/>
</clipPath>
</defs>
</svg>
