<svg width="64" height="64" viewBox="0 0 64 64" fill="none" xmlns="http://www.w3.org/2000/svg">
<g clip-path="url(#clip0_1_4685)">
<path d="M63.9909 8.85394C63.9909 3.97186 60.0192 0 55.1371 0C50.8957 0 47.3431 2.99839 46.4833 6.9865H34.2026C32.5335 6.9865 30.9643 7.63636 29.7837 8.81657L1.84009 36.7536C0.659507 37.9339 0.00915529 39.5035 0.00915529 41.1729C0.0090303 42.8425 0.659132 44.4121 1.83972 45.5926L18.4164 62.1693C19.5968 63.3496 21.1663 63.9999 22.8356 63.9999C24.5049 63.9999 26.0744 63.3498 27.2548 62.1693L36.9225 52.5017C37.4106 52.0135 37.4106 51.2221 36.9225 50.7338C36.4342 50.2459 35.643 50.2459 35.1547 50.7338L25.487 60.4015C24.0249 61.8636 21.646 61.8636 20.1839 60.4015L3.60728 43.825C2.89893 43.1166 2.50882 42.1749 2.50894 41.173C2.50894 40.1713 2.89905 39.2297 3.60753 38.5215L31.5513 10.5845C32.2595 9.8764 33.2011 9.48642 34.2026 9.48642H46.308C46.4573 11.6128 47.3542 13.5923 48.8763 15.1143C49.3645 15.6026 50.1559 15.6026 50.644 15.1145C51.1322 14.6264 51.1322 13.835 50.6441 13.3468C49.5944 12.2969 48.9573 10.9445 48.8142 9.48629H50.7801C52.8478 9.48629 54.53 11.1685 54.53 13.2362V29.8056C54.53 30.8072 54.14 31.7489 53.4316 32.4571L43.1094 42.7794C42.6213 43.2675 42.6213 44.059 43.1094 44.5472C43.5976 45.0352 44.3888 45.0352 44.8772 44.5472L55.1995 34.2249C56.3798 33.0445 57.03 31.475 57.03 29.8057V17.5036C61.0608 16.6333 63.9909 13.0765 63.9909 8.85394ZM57.0299 14.9224V13.2362C57.0299 9.79003 54.2262 6.98638 50.7801 6.98638H49.0637C49.8633 4.39135 52.2833 2.49991 55.1371 2.49991C58.6406 2.49991 61.491 5.35031 61.491 8.85394C61.491 11.6952 59.6436 14.1164 57.0299 14.9224Z" fill="#434343"/>
<path d="M17.2469 41.1045C17.735 40.6164 17.735 39.8249 17.2469 39.3367C16.7587 38.8487 15.9675 38.8487 15.4791 39.3367L12.4701 42.3457C11.982 42.8338 11.982 43.6253 12.4701 44.1135L19.8943 51.5379C20.1384 51.7819 20.4583 51.904 20.7782 51.904C21.098 51.904 21.4179 51.7819 21.662 51.5379C22.1501 51.0498 22.1501 50.2583 21.662 49.7701L18.7634 46.8714L20.6495 44.9852C21.1377 44.4971 21.1377 43.7057 20.6495 43.2174C20.1613 42.7294 19.3701 42.7294 18.8817 43.2174L16.9955 45.1036L15.1214 43.2294L17.2469 41.1045Z" fill="#434343"/>
<path d="M32.0015 40.6827C32.6555 40.6827 33.2056 40.1742 33.2477 39.5124C33.2917 38.8234 32.7689 38.2293 32.0799 38.1854L27.9477 37.9219C28.295 37.3248 28.492 36.6492 28.5139 35.9466C28.5483 34.841 28.1489 33.8138 27.3893 33.0541C25.8381 31.5029 23.2651 31.5516 21.6533 33.1632L19.6803 35.1361C19.68 35.1365 19.6796 35.137 19.6792 35.1374C19.6788 35.1378 19.6783 35.1381 19.678 35.1385C19.1899 35.6266 19.1899 36.4181 19.678 36.9063L27.1023 44.3306C27.3465 44.5746 27.6663 44.6967 27.9862 44.6967C28.306 44.6967 28.6259 44.5746 28.87 44.3306C29.3581 43.8425 29.3581 43.051 28.87 42.5628L26.6512 40.3441L31.9205 40.6801C31.9479 40.6818 31.9749 40.6827 32.0015 40.6827ZM23.4212 34.9309C24.0472 34.3049 25.0548 34.2549 25.6216 34.8218C25.8883 35.0884 26.028 35.46 26.0152 35.8685C26.002 36.2955 25.8186 36.7158 25.5124 37.0221C25.2618 37.2727 24.83 37.7081 24.4358 38.1062C24.0464 37.7208 23.6238 37.3017 23.3827 37.0607C23.1765 36.8546 22.7407 36.4211 22.3348 36.0172L23.4212 34.9309Z" fill="#434343"/>
<path d="M44.1751 29.0265L47.3033 25.8983C47.7915 25.4101 47.7915 24.6187 47.3033 24.1304C46.8151 23.6425 46.0239 23.6425 45.5355 24.1304L43.2911 26.3749L41.3467 24.4304L43.3604 22.4166C43.8485 21.9285 43.8485 21.1371 43.3604 20.6488C42.8721 20.1608 42.0809 20.1608 41.5925 20.6488L39.5789 22.6626L37.6343 20.7181L39.8789 18.4736C40.367 17.9855 40.367 17.1941 39.8789 16.7058C39.3906 16.2178 38.5994 16.2178 38.111 16.7058L34.9828 19.8341C34.4947 20.3222 34.4947 21.1137 34.9828 21.6019L38.6944 25.3135L38.695 25.3142C38.695 25.3142 38.6954 25.3145 38.6956 25.3148L42.4071 29.0264C42.6416 29.2608 42.9595 29.3925 43.291 29.3925C43.6225 29.3925 43.9406 29.2609 44.1751 29.0265Z" fill="#434343"/>
<path d="M36.0419 36.6406C36.3734 36.6406 36.6913 36.5088 36.9257 36.2744L40.054 33.1462C40.5421 32.6581 40.5421 31.8666 40.054 31.3784C39.5658 30.8904 38.7746 30.8904 38.2862 31.3784L36.0418 33.6228L34.0973 31.6784L36.1113 29.6646C36.5994 29.1764 36.5994 28.385 36.1113 27.8967C35.6232 27.409 34.8319 27.4088 34.3435 27.8967L32.3297 29.9105L30.3852 27.9661L32.6298 25.7217C33.1179 25.2336 33.1179 24.4421 32.6298 23.9539C32.1415 23.4659 31.3503 23.4659 30.862 23.9539L27.7337 27.0821C27.2456 27.5702 27.2456 28.3617 27.7337 28.85L35.1579 36.2743C35.3924 36.5088 35.7103 36.6406 36.0419 36.6406Z" fill="#434343"/>
<path d="M40.0161 46.3906C39.6873 46.3906 39.3648 46.5244 39.1323 46.7569C38.8999 46.9894 38.7661 47.3119 38.7661 47.6406C38.7661 47.9694 38.8998 48.2919 39.1323 48.5244C39.3648 48.7568 39.6873 48.8906 40.0161 48.8906C40.3448 48.8906 40.6673 48.7569 40.8998 48.5244C41.1322 48.2919 41.2661 47.9694 41.2661 47.6406C41.2661 47.3119 41.1323 46.9894 40.8998 46.7569C40.6673 46.5244 40.3448 46.3906 40.0161 46.3906Z" fill="#434343"/>
</g>
<defs>
<clipPath id="clip0_1_4685">
<rect width="64" height="64" fill="white"/>
</clipPath>
</defs>
</svg>
