<svg width="25" height="25" viewBox="0 0 25 25" fill="none" xmlns="http://www.w3.org/2000/svg">
<path d="M14.3729 5.50934L13.7679 14.7077C13.7384 15.0468 13.6056 15.3294 13.3695 15.5555C13.1334 15.7816 12.8531 15.8946 12.5285 15.8946C12.1645 15.8946 11.8645 15.7769 11.6284 15.5414C11.4021 15.3059 11.2792 15.028 11.2595 14.7077L10.6545 5.48108C10.6348 5.16081 10.748 4.88292 10.9939 4.64743C11.2496 4.41194 11.5497 4.29419 11.894 4.29419H13.1334C13.4777 4.29419 13.7728 4.42136 14.0188 4.67569C14.2745 4.9206 14.3926 5.19848 14.3729 5.50934ZM11.894 17.2865H13.0744C13.4187 17.2865 13.7138 17.4042 13.9597 17.6397C14.2155 17.8752 14.3434 18.1531 14.3434 18.4734V19.519C14.3434 19.8486 14.2204 20.1312 13.9745 20.3667C13.7384 20.5928 13.4482 20.7058 13.1039 20.7058H11.8645C11.5202 20.7058 11.2251 20.5928 10.9791 20.3667C10.743 20.1312 10.625 19.8486 10.625 19.519V18.5016C10.6348 18.1719 10.7627 17.8893 11.0086 17.6538C11.2546 17.4089 11.5497 17.2865 11.894 17.2865Z" fill="white"/>
</svg>
