<svg width="48" height="49" viewBox="0 0 48 49" fill="none" xmlns="http://www.w3.org/2000/svg">
<path d="M42.3752 7.61506H42.3077V3.98975C42.3077 3.34287 41.7827 2.81787 41.1359 2.81787C40.489 2.81787 39.964 3.34287 39.964 3.98975V7.61506H39.8965C38.2165 7.61506 36.8496 8.98193 36.8496 10.6619V34.2335C36.8496 35.9135 38.2165 37.2804 39.8965 37.2804H39.964V40.9057C39.964 41.5526 40.489 42.0776 41.1359 42.0776C41.7827 42.0776 42.3077 41.5526 42.3077 40.9057V37.2804H42.3752C44.0552 37.2804 45.4221 35.9135 45.4221 34.2335V10.6619C45.4221 8.98193 44.0552 7.61506 42.3752 7.61506Z" fill="#D20000"/>
<path d="M30.9514 18.9803H30.8839V17.1831C30.8839 16.5362 30.3589 16.0112 29.712 16.0112C29.0652 16.0112 28.5402 16.5362 28.5402 17.1831V18.9803H28.4727C26.7927 18.9803 25.4258 20.3472 25.4258 22.0272V39.6447C25.4258 41.3247 26.7927 42.6915 28.4727 42.6915H28.5402V44.4887C28.5402 45.1356 29.0652 45.6606 29.712 45.6606C30.3589 45.6606 30.8839 45.1356 30.8839 44.4887V42.6915H30.9514C32.6314 42.6915 33.9983 41.3247 33.9983 39.6447V22.0272C33.9983 20.3472 32.6314 18.9803 30.9514 18.9803Z" fill="#D20000"/>
<path d="M19.5286 15.1189H19.4611V12.688C19.4611 12.0411 18.9361 11.5161 18.2892 11.5161C17.6423 11.5161 17.1173 12.0411 17.1173 12.688V15.1189H17.0498C15.3698 15.1189 14.0029 16.4858 14.0029 18.1658V28.9611C14.0029 30.6411 15.3698 32.008 17.0498 32.008H17.1173V34.4389C17.1173 35.0858 17.6423 35.6108 18.2892 35.6108C18.9361 35.6108 19.4611 35.0858 19.4611 34.4389V32.008H19.5286C21.2086 32.008 22.5754 30.6411 22.5754 28.9611V18.1658C22.5754 16.4858 21.2086 15.1189 19.5286 15.1189Z" fill="#D20000"/>
<path d="M8.10375 8.16537H8.03625V3.98975C8.03625 3.34287 7.51125 2.81787 6.86438 2.81787C6.2175 2.81787 5.6925 3.34287 5.6925 3.98975V8.16537H5.625C3.945 8.16537 2.57812 9.53225 2.57812 11.2122V32.9735C2.57812 34.6535 3.945 36.0204 5.625 36.0204H5.6925V40.196C5.6925 40.8429 6.2175 41.3679 6.86438 41.3679C7.51125 41.3679 8.03625 40.8429 8.03625 40.196V36.0204H8.10375C9.78375 36.0204 11.1506 34.6535 11.1506 32.9735V11.2122C11.1506 9.53225 9.78375 8.16537 8.10375 8.16537Z" fill="#D20000"/>
</svg>
