<svg width="40" height="40" viewBox="0 0 40 40" fill="none" xmlns="http://www.w3.org/2000/svg">
<g clip-path="url(#clip0_2002_1147)">
<path opacity="0.3" d="M24.3103 15.9643C23.7297 16.6301 22.6327 17.5165 20.6082 18.2368C20.7046 16.4283 21.1794 13.3051 23.281 12.742C24.1841 12.5 24.9003 12.8385 25.1053 13.6039C25.2939 14.3075 25.0041 15.1677 24.3103 15.9643ZM18.04 18.925C17.0522 17.4069 15.0795 14.9396 12.9778 15.5027C12.0748 15.7447 11.6238 16.3959 11.8289 17.1613C12.0174 17.865 12.6985 18.465 13.6977 18.8079C14.5333 19.0942 15.9266 19.3134 18.04 18.925Z" fill="#3B82F6"/>
<path d="M28.7718 7.47477L30.9286 15.5242L26.2026 16.7905C27.0528 15.6013 27.3569 14.2784 27.0375 13.0862C26.5419 11.2367 24.7446 10.2793 22.7637 10.8101C20.8734 11.3166 19.8379 12.8492 19.2659 14.4989L17.4564 7.74598L25.5058 5.58916C26.9284 5.20798 28.3906 6.05214 28.7718 7.47477ZM27.1574 22.0561C27.6907 21.9132 28.2393 22.23 28.3822 22.7632C28.525 23.2965 28.2083 23.8451 27.675 23.988C25.7896 24.4932 23.4529 24.1951 21.6068 23.2354L23.6681 30.9282L31.7175 28.7714C33.14 28.3902 33.9843 26.9279 33.6031 25.5054L31.4463 17.456L21.0311 20.2467C22.2179 21.8467 25.1052 22.606 27.1574 22.0561ZM13.5713 26.7318C13.4284 26.1985 13.7451 25.6499 14.2784 25.507C16.3306 24.9572 18.4515 22.8559 18.6792 20.8769L8.26406 23.6677L10.4209 31.717C10.8021 33.1396 12.2643 33.9838 13.6869 33.6027L21.7363 31.4458L19.675 23.753C18.556 25.5072 16.6815 26.9337 14.796 27.4389C14.2628 27.5818 13.7142 27.2651 13.5713 26.7318ZM5.5896 13.6864L7.74642 21.7358L12.4725 20.4695C11.1416 19.8647 10.2168 18.8711 9.89732 17.6789C9.40176 15.8294 10.4796 14.1016 12.4605 13.5708C14.3507 13.0643 16.0138 13.8739 17.334 15.0165L15.5246 8.26361L7.47523 10.4204C6.05268 10.8016 5.20841 12.2638 5.5896 13.6864Z" fill="#3B82F6"/>
</g>
<defs>
<clipPath id="clip0_2002_1147">
<rect width="32" height="32" fill="white" transform="translate(0 8.2822) rotate(-15)"/>
</clipPath>
</defs>
</svg>
