<svg width="49" height="49" viewBox="0 0 49 49" fill="none" xmlns="http://www.w3.org/2000/svg">
<g clip-path="url(#clip0_2005_121)">
<path d="M16.8701 42.8433H19.7372V43.0852C19.7372 45.9274 22.0496 48.2398 24.8919 48.2398C27.7341 48.2398 30.0465 45.9274 30.0465 43.0852V42.8433H32.9136V36.5752H16.8701V42.8433Z" fill="#D20000"/>
<path d="M23.485 28.8704L19.6621 26.4116V22.1779H22.475V24.8764L24.8914 26.4305L27.3078 24.8764V22.1779H30.1207V26.4116L26.2979 28.8704V33.7622H33.1164C33.3665 32.9166 33.8403 32.1423 34.4993 31.5347C37.4039 28.857 39.07 25.0565 39.07 21.1077C39.07 13.2896 32.7095 6.9292 24.8914 6.9292L24.7895 6.92957C21.0599 6.95583 17.5426 8.43073 14.8856 11.0824C12.2286 13.7343 10.7468 17.2486 10.7135 20.9781C10.6778 24.9596 12.3316 28.7963 15.2508 31.5043C15.9214 32.1264 16.4041 32.911 16.66 33.7623H23.4851L23.485 28.8704Z" fill="#D20000"/>
<path d="M23.3936 0.239746H26.2065V4.04035H23.3936V0.239746Z" fill="#D20000"/>
<path d="M13.1426 3.72998L15.5786 2.32353L17.4837 5.6233L15.0478 7.02975L13.1426 3.72998Z" fill="#D20000"/>
<path d="M6.01562 11.8872L7.42208 9.45123L10.7218 11.3564L9.31539 13.7924L6.01562 11.8872Z" fill="#D20000"/>
<path d="M3.92188 19.7012H7.73223V22.5141H3.92188V19.7012Z" fill="#D20000"/>
<path d="M41.8672 19.7012H45.6775V22.5141H41.8672V19.7012Z" fill="#D20000"/>
<path d="M38.876 11.3555L42.1758 9.45025L43.5823 11.8862L40.2824 13.7914L38.876 11.3555Z" fill="#D20000"/>
<path d="M32.1152 5.62451L34.0204 2.32474L36.4564 3.73119L34.5512 7.03096L32.1152 5.62451Z" fill="#D20000"/>
</g>
<defs>
<clipPath id="clip0_2005_121">
<rect width="48" height="48" fill="white" transform="translate(0.799805 0.239746)"/>
</clipPath>
</defs>
</svg>
