<svg width="49" height="49" viewBox="0 0 49 49" fill="none" xmlns="http://www.w3.org/2000/svg">
<g clip-path="url(#clip0_2005_141)">
<path d="M0.854498 24.3018C0.338516 24.4918 0.0725565 25.0638 0.260519 25.5817L0.888528 27.3097L5.67027 22.5278L0.854498 24.3018Z" fill="#D20000"/>
<path d="M5.37988 39.6616L8.25978 47.5813C8.34978 47.8314 8.53774 48.0354 8.77773 48.1453C8.9117 48.2073 9.05569 48.2394 9.19969 48.2394C9.31771 48.2394 9.43368 48.2194 9.5457 48.1774L12.7236 47.0055L5.37988 39.6616Z" fill="#D20000"/>
<path d="M48.1387 32.8995L44.8428 23.8379L36.9331 31.7476L40.853 30.3036C41.367 30.1076 41.9469 30.3756 42.1369 30.8956C42.3289 31.4136 42.063 31.9895 41.5449 32.1796L36.5651 34.0155C36.4511 34.0575 36.3351 34.0775 36.2191 34.0775C35.8131 34.0775 35.4291 33.8274 35.2811 33.4235C35.2792 33.4175 35.2811 33.4115 35.2792 33.4055L26.8975 41.7872L47.5447 34.1795C48.0627 33.9895 48.3286 33.4175 48.1387 32.8995Z" fill="#D20000"/>
<path d="M47.907 16.5322L31.9076 0.532724C31.5176 0.142738 30.8836 0.142738 30.4936 0.532724L0.494638 30.5317C0.104652 30.9217 0.104652 31.5557 0.494638 31.9457L16.4941 47.9451C16.6881 48.1411 16.9441 48.2391 17.2001 48.2391C17.4561 48.2391 17.7121 48.1411 17.9081 47.9471L47.907 17.9481C48.297 17.5562 48.297 16.9241 47.907 16.5322ZM11.9083 27.9478L7.90841 31.9476C7.71238 32.1416 7.45646 32.2396 7.20043 32.2396C6.94441 32.2396 6.68848 32.1417 6.49246 31.9476C6.10247 31.5576 6.10247 30.9236 6.49246 30.5336L10.4923 26.5337C10.8823 26.1438 11.5163 26.1438 11.9063 26.5337C12.2963 26.9238 12.2983 27.5558 11.9083 27.9478ZM29.1777 29.2177C28.4697 29.9257 27.5077 30.2657 26.4377 30.2657C24.6698 30.2657 22.6039 29.3398 20.8759 27.6098C19.6119 26.3458 18.724 24.8338 18.378 23.354C17.9941 21.704 18.3101 20.2681 19.268 19.3081C20.226 18.3482 21.6619 18.0321 23.3138 18.4182C24.7938 18.7642 26.3057 19.6501 27.5696 20.9161C30.3476 23.6919 31.0556 27.3398 29.1777 29.2177ZM41.9072 17.9481L37.9073 21.948C37.7113 22.142 37.4554 22.2401 37.1994 22.2401C36.9434 22.2401 36.6874 22.1421 36.4914 21.948C36.1014 21.558 36.1014 20.924 36.4914 20.5341L40.4913 16.5342C40.8813 16.1442 41.5153 16.1442 41.9053 16.5342C42.2953 16.9241 42.2972 17.5562 41.9072 17.9481Z" fill="#D20000"/>
</g>
<defs>
<clipPath id="clip0_2005_141">
<rect width="48" height="48" fill="white" transform="translate(0.200195 0.239746)"/>
</clipPath>
</defs>
</svg>
