<svg width="49" height="49" viewBox="0 0 49 49" fill="none" xmlns="http://www.w3.org/2000/svg">
<g clip-path="url(#clip0_2005_139)">
<path fill-rule="evenodd" clip-rule="evenodd" d="M46.5851 36.0799C46.5844 36.8208 46.2897 37.5312 45.7658 38.055C45.2419 38.5789 44.5316 38.8735 43.7907 38.8742H27.1049C27.7278 37.0312 27.3685 34.9362 26.3259 33.2855C43.8813 33.4905 46.19 32.171 46.5853 36.0798L46.5851 36.0799ZM5.00995 39.6198C4.27157 39.6155 3.56488 39.3192 3.04428 38.7956C2.52367 38.2719 2.23145 37.5636 2.23145 36.8252C2.23145 36.0868 2.52367 35.3784 3.04428 34.8548C3.56488 34.3311 4.27157 34.0348 5.00995 34.0305H21.6059C22.3442 34.0348 23.0509 34.3311 23.5715 34.8548C24.0921 35.3784 24.3844 36.0868 24.3844 36.8252C24.3844 37.5636 24.0921 38.2719 23.5715 38.7956C23.0509 39.3192 22.3442 39.6155 21.6059 39.6198H5.00995ZM5.00995 25.4167C5.80532 25.5651 23.0602 25.0309 23.0153 25.7984C24.8544 26.7521 24.8094 29.6385 23.0153 30.6235C21.1122 31.4829 17.3215 30.8016 10.8518 31.0057C7.76442 31.0057 5.18985 31.0057 5.01829 31.0057C1.36026 30.8836 1.26192 25.6184 5.00995 25.4163V25.4167ZM5.00995 48.2345C4.27157 48.2302 3.56488 47.9339 3.04428 47.4103C2.52367 46.8866 2.23145 46.1782 2.23145 45.4399C2.23145 44.7015 2.52367 43.9931 3.04428 43.4694C3.56488 42.9458 4.27157 42.6495 5.00995 42.6452H21.6059C22.3442 42.6495 23.0509 42.9458 23.5715 43.4694C24.0921 43.9931 24.3844 44.7015 24.3844 45.4399C24.3844 46.1782 24.0921 46.8866 23.5715 47.4103C23.0509 47.9339 22.3442 48.2302 21.6059 48.2345H5.00995ZM43.7907 47.489H27.1049C27.7278 45.646 27.3685 43.5509 26.3259 41.9003H43.7907C47.6547 42.1336 47.3118 47.4029 43.7907 47.489ZM3.64129 3.87443C1.5562 1.42043 4.94995 -0.868285 6.5917 0.835153C6.88907 1.1225 17.225 11.1133 17.2295 11.1177C32.5632 0.887841 25.053 1.23518 40.4581 13.4555C39.7269 8.6239 43.7832 8.96487 44.5133 11.0086C44.7758 12.0226 44.5954 12.1828 44.7243 14.2314C44.7567 17.5189 45.2399 19.1157 44.3141 20.0912C43.371 20.945 42.7979 20.724 42.0133 20.7943C39.3137 20.8552 36.2008 21.0822 35.4097 20.9741C31.5123 19.1934 34.7035 16.0594 37.7478 16.7094L28.2509 8.54234C12.5923 18.8857 20.5941 19.1132 3.64129 3.87443Z" fill="#D20000"/>
</g>
<defs>
<clipPath id="clip0_2005_139">
<rect width="48" height="48" fill="white" transform="translate(0.400391 0.239746)"/>
</clipPath>
</defs>
</svg>
