<svg width="49" height="49" viewBox="0 0 49 49" fill="none" xmlns="http://www.w3.org/2000/svg">
<path d="M47.0996 18.2398C47.1008 18.4372 47.0629 18.6329 46.9883 18.8157C46.9137 18.9984 46.8037 19.1646 46.6646 19.3048L37.6646 28.3048C37.5245 28.4438 37.3583 28.5538 37.1755 28.6285C36.9927 28.7031 36.797 28.7409 36.5996 28.7398C36.4046 28.7422 36.211 28.7065 36.0296 28.6348C35.7533 28.5213 35.5172 28.3279 35.3515 28.0794C35.1859 27.8308 35.0981 27.5385 35.0996 27.2398V22.7398H21.5996C21.2018 22.7398 20.8203 22.5818 20.539 22.3005C20.2577 22.0192 20.0996 21.6376 20.0996 21.2398V15.2398C20.0996 14.842 20.2577 14.4604 20.539 14.1791C20.8203 13.8978 21.2018 13.7398 21.5996 13.7398H35.0996V9.2398C35.1009 8.94315 35.1901 8.65352 35.3559 8.40754C35.5218 8.16157 35.7568 7.97029 36.0314 7.8579C36.3059 7.74551 36.6076 7.71706 36.8983 7.77614C37.1891 7.83522 37.4557 7.97917 37.6646 8.18981L46.6646 17.1898C46.9418 17.4692 47.098 17.8463 47.0996 18.2398ZM27.5996 25.7398H14.0996V21.2398C14.0982 20.9437 14.0091 20.6546 13.8436 20.409C13.6781 20.1634 13.4436 19.9723 13.1696 19.8598C12.8965 19.7449 12.5954 19.7136 12.3044 19.7696C12.0134 19.8257 11.7456 19.9667 11.5346 20.1748L2.53463 29.1748C2.39561 29.315 2.28562 29.4812 2.21098 29.6639C2.13633 29.8467 2.09849 30.0424 2.09963 30.2398C2.09849 30.4372 2.13633 30.6329 2.21098 30.8157C2.28562 30.9984 2.39561 31.1646 2.53463 31.3048L11.5346 40.3048C11.6748 40.4438 11.841 40.5538 12.0238 40.6285C12.2065 40.7031 12.4022 40.7409 12.5996 40.7398C12.7964 40.7449 12.9916 40.7038 13.1696 40.6198C13.4436 40.5073 13.6781 40.3162 13.8436 40.0706C14.0091 39.825 14.0982 39.5359 14.0996 39.2398V34.7398H27.5996C27.9975 34.7398 28.379 34.5818 28.6603 34.3005C28.9416 34.0192 29.0996 33.6376 29.0996 33.2398V27.2398C29.0996 26.842 28.9416 26.4604 28.6603 26.1791C28.379 25.8978 27.9975 25.7398 27.5996 25.7398Z" fill="#D20000"/>
</svg>
