<svg width="24" height="24" viewBox="0 0 24 24" fill="none" xmlns="http://www.w3.org/2000/svg">
<g clip-path="url(#clip0_8_159)">
<path d="M13.5 9H12V7.5C12 6.67158 11.3284 6 10.5 6C9.67158 6 9 6.67158 9 7.5V9H7.5C6.67158 9 6 9.67158 6 10.5C6 11.3284 6.67158 12 7.5 12H9V13.5C9 14.3284 9.67158 15 10.5 15C11.3284 15 12 14.3284 12 13.5V12H13.5C14.3284 12 15 11.3284 15 10.5C15 9.67158 14.3284 9 13.5 9Z" fill="#DA4053"/>
<path d="M23.5623 21.448L18.9196 16.8043C22.3967 12.1608 21.4513 5.57773 16.8078 2.10058C12.1644 -1.37656 5.58137 -0.431184 2.10419 4.21226C-1.373 8.8557 -0.427532 15.4388 4.21591 18.9159C7.94655 21.7095 13.072 21.7108 16.8039 18.9189L21.4487 23.5636C22.0323 24.1473 22.9787 24.1473 23.5623 23.5636C24.146 22.98 24.146 22.0336 23.5623 21.45V21.448ZM10.5524 18.0224C6.42648 18.0224 3.08176 14.6777 3.08176 10.5518C3.08176 6.42584 6.42653 3.08112 10.5524 3.08112C14.6783 3.08112 18.0231 6.42584 18.0231 10.5518C18.0187 14.6759 14.6766 18.0181 10.5524 18.0224Z" fill="#DA4053"/>
</g>
<defs>
<clipPath id="clip0_8_159">
<rect width="24" height="24" fill="white"/>
</clipPath>
</defs>
</svg>
